<svg width="25" height="24" viewBox="0 0 25 24" fill="none" xmlns="http://www.w3.org/2000/svg">
<path d="M22.437 10.154C22.56 10.813 22.627 11.502 22.627 12.221C22.627 17.845 18.863 21.844 13.178 21.844C11.8851 21.8444 10.6049 21.59 9.41035 21.0955C8.21584 20.6009 7.13049 19.8758 6.21632 18.9616C5.30214 18.0475 4.57705 16.9621 4.08248 15.7676C3.58791 14.5731 3.33356 13.2929 3.33395 12C3.33356 10.7072 3.58791 9.42691 4.08248 8.2324C4.57705 7.0379 5.30214 5.95255 6.21632 5.03837C7.13049 4.12419 8.21584 3.3991 9.41035 2.90453C10.6049 2.40997 11.8851 2.15561 13.178 2.15601C15.836 2.15601 18.057 3.13401 19.761 4.72201L16.986 7.49701V7.49001C15.953 6.50601 14.642 6.00101 13.178 6.00101C9.92995 6.00101 7.28995 8.74501 7.28995 11.994C7.28995 15.242 9.92995 17.992 13.178 17.992C16.125 17.992 18.131 16.307 18.543 13.993H13.178V10.154H22.438H22.437Z" fill="white"/>
</svg>
