<svg width="21" height="20" viewBox="0 0 21 20" fill="none" xmlns="http://www.w3.org/2000/svg">
<g clip-path="url(#clip0_12156_794)">
<path d="M19.3143 16.6666V10.145C19.3144 9.69125 19.2218 9.24229 19.0422 8.82559C18.8627 8.4089 18.6 8.03325 18.2701 7.72165L12.126 1.91498C11.8165 1.62242 11.4068 1.45941 10.981 1.45941C10.5551 1.45941 10.1454 1.62242 9.83598 1.91498L3.69181 7.72165C3.362 8.03325 3.09927 8.4089 2.91973 8.82559C2.74018 9.24229 2.6476 9.69125 2.64764 10.145V16.6666C2.64764 17.1087 2.82324 17.5326 3.1358 17.8452C3.44836 18.1577 3.87228 18.3333 4.31431 18.3333H17.6476C18.0897 18.3333 18.5136 18.1577 18.8262 17.8452C19.1387 17.5326 19.3143 17.1087 19.3143 16.6666Z" stroke="#6F6E73" stroke-width="2" stroke-linecap="round" stroke-linejoin="round"/>
</g>
<defs>
<clipPath id="clip0_12156_794">
<rect width="20" height="20" fill="white" transform="translate(0.980957)"/>
</clipPath>
</defs>
</svg>
