<svg width="22" height="22" viewBox="0 0 22 22" fill="none" xmlns="http://www.w3.org/2000/svg">
<path d="M0.980957 7.66414C0.980957 6.67583 1.41494 5.73736 2.16798 5.09728L7.22126 0.801993C8.47928 -0.267329 10.3269 -0.267332 11.5849 0.801991L16.6382 5.09728C17.3912 5.73736 17.8252 6.67583 17.8252 7.66414V16.2128C17.8252 18.0734 16.3169 19.5817 14.4564 19.5817H4.34981C2.48924 19.5817 0.980957 18.0734 0.980957 16.2128V7.66414Z" fill="#B072FF"/>
<path d="M4.24158 10.0825C4.24158 9.09416 4.67556 8.1557 5.4286 7.51561L10.4819 3.22033C11.7399 2.15101 13.5875 2.151 14.8455 3.22033L19.8988 7.51561C20.6519 8.1557 21.0858 9.09416 21.0858 10.0825V18.6311C21.0858 20.4917 19.5776 22 17.717 22H7.61043C5.74986 22 4.24158 20.4917 4.24158 18.6311V10.0825Z" fill="#33373B"/>
</svg>
