<svg width="203" height="167" viewBox="0 0 203 167" fill="none" xmlns="http://www.w3.org/2000/svg">
<path fill-rule="evenodd" clip-rule="evenodd" d="M208.122 37.1583L208.117 37.6583L208.103 38.1582L208.079 38.6578L208.045 39.157L208.002 39.6556L207.949 40.1537L207.886 40.6509L207.814 41.1473L207.732 41.6426L207.641 42.1368L207.54 42.6296L207.43 43.1211L207.311 43.611L207.181 44.0992L207.043 44.5856L206.895 45.0702L206.738 45.5526L206.571 46.0329L206.395 46.5109L206.21 46.9865L206.016 47.4595L205.813 47.9299L205.6 48.3975L205.379 48.8622L205.148 49.3239L204.909 49.7824L204.661 50.2377L204.403 50.6896L204.138 51.1381L203.863 51.5829L203.58 52.024L203.288 52.4613L202.988 52.8947L202.679 53.324L202.362 53.7492L202.037 54.1702L201.704 54.5867L201.362 54.9988L201.013 55.4064L200.655 55.8092L200.29 56.2074L199.916 56.6006L199.535 56.9889L199.147 57.3721L198.751 57.7502L198.347 58.1231L197.937 58.4906L197.519 58.8527L197.094 59.2093L196.661 59.5603L196.222 59.9057L195.776 60.2452L195.324 60.579L194.864 60.9069L194.398 61.2287L193.926 61.5445L193.447 61.8542L192.963 62.1577L192.472 62.4549L191.975 62.7458L191.472 63.0303L190.964 63.3083L190.45 63.5798L189.93 63.8447L189.405 64.103L188.875 64.3546L188.34 64.5994L187.799 64.8375L187.254 65.0687L186.704 65.2931L186.149 65.5105L185.59 65.7209L185.026 65.9243L184.458 66.1207L183.886 66.3101L183.31 66.4923L182.73 66.6673L182.146 66.8352L181.559 66.9959L180.968 67.1494L180.373 67.2957L179.776 67.4347L179.175 67.5664L178.571 67.6908L177.965 67.808L177.355 67.9178L176.744 68.0203L176.129 68.1155L175.513 68.2034L174.894 68.284L174.273 68.3572L173.651 68.4231L173.026 68.4817L172.4 68.533L171.772 68.577L171.143 68.6138L170.513 68.6432L169.881 68.6655L169.249 68.6805L168.616 68.6883L167.982 68.6889L167.347 68.6824L166.713 68.6688L166.077 68.6481L165.442 68.6203L164.806 68.5855L164.171 68.5438L163.536 68.4951L162.901 68.4395L162.266 68.3771L161.633 68.3078L160.999 68.2319L160.367 68.1492L159.736 68.0598L159.106 67.9639L158.477 67.8615L157.849 67.7525L157.223 67.6372L156.598 67.5155L155.976 67.3875L155.355 67.2533L154.736 67.113L154.119 66.9666L153.504 66.8142L152.891 66.6559L152.281 66.4918L151.674 66.3218L151.069 66.1462L150.466 65.965L149.867 65.7783L149.271 65.5862L148.677 65.3887L148.087 65.1859L147.501 64.978L146.917 64.7651L146.337 64.5472L145.761 64.3244L145.188 64.0968L144.619 63.8646L144.054 63.6278L143.493 63.3865L142.936 63.1408L142.383 62.8909L141.834 62.6369L141.29 62.3788L140.75 62.1168L140.214 61.8509L139.683 61.5814L139.157 61.3082L138.636 61.0316L138.119 60.7516L137.607 60.4684L137.1 60.182L136.598 59.8926L136.101 59.6003L135.61 59.3053L135.123 59.0076L134.642 58.7074L134.166 58.4048L133.696 58.0999L133.231 57.7928L132.771 57.4838L132.317 57.1728L131.869 56.8601L131.426 56.5457L130.989 56.2298L130.558 55.9125L130.132 55.594L129.713 55.2743L129.299 54.9537L128.891 54.6322L128.489 54.3099L128.093 53.9871L127.703 53.6638L127.319 53.3401L126.941 53.0163L126.569 52.6923L126.204 52.3684L125.844 52.0448L125.491 51.7214L125.143 51.3985L124.802 51.0762L124.467 50.7546L124.138 50.4339L123.815 50.1142L123.499 49.7955L123.188 49.4782L122.884 49.1622L122.586 48.8477L122.294 48.5348L122.009 48.2238L121.729 47.9146L121.456 47.6074L121.188 47.3025L120.927 46.9997L120.672 46.6995L120.423 46.4017L120.18 46.1066L119.943 45.8143L119.713 45.5249L119.488 45.2386L119.269 44.9554L119.056 44.6755L118.848 44.399L118.647 44.126L118.452 43.8566L118.262 43.591L118.078 43.3293L117.899 43.0716L117.727 42.818L117.559 42.5686L117.398 42.3235L117.242 42.0828L117.091 41.8467L116.946 41.6152L116.806 41.3886L116.671 41.1667L116.541 40.9499L116.417 40.7381L116.297 40.5315L116.183 40.3301L116.074 40.1341L115.969 39.9436L115.869 39.7586L115.774 39.5793L115.684 39.4057L115.598 39.238L115.517 39.0761L115.44 38.9203L115.368 38.7705L115.299 38.627L115.235 38.4896L115.175 38.3586L115.119 38.234L115.067 38.1158L115.019 38.0042L114.975 37.8993L114.934 37.801L114.897 37.7094L114.863 37.6247L114.832 37.5469L114.805 37.4759L114.781 37.412L114.761 37.3552L114.743 37.3054L114.728 37.2628L114.716 37.2274L114.707 37.1992L114.7 37.1784L114.695 37.1649L114.694 37.1587L114.694 37.16L114.696 37.1688L114.701 37.185L114.708 37.2087L114.716 37.24L114.727 37.2789L114.738 37.3253L114.752 37.3794L114.767 37.4412L114.783 37.5105L114.8 37.5876L114.819 37.6723L114.839 37.7648L114.859 37.8649L114.88 37.9727L114.902 38.0883L114.925 38.2116L114.948 38.3425L114.971 38.4812L114.994 38.6276L115.018 38.7817L115.042 38.9434L115.065 39.1129L115.088 39.2899L115.111 39.4746L115.134 39.6669L115.156 39.8668L115.177 40.0743L115.198 40.2893L115.218 40.5118L115.236 40.7417L115.254 40.9791L115.271 41.2239L115.286 41.4761L115.3 41.7356L115.312 42.0023L115.322 42.2763L115.331 42.5575L115.338 42.8458L115.344 43.1411L115.347 43.4435L115.348 43.7529L115.346 44.0691L115.343 44.3922L115.337 44.7221L115.328 45.0586L115.317 45.4018L115.303 45.7516L115.286 46.1079L115.267 46.4706L115.244 46.8397L115.218 47.215L115.189 47.5965L115.157 47.9841L115.121 48.3777L115.082 48.7773L115.039 49.1827L114.993 49.5938L114.943 50.0107L114.889 50.4331L114.832 50.8609L114.77 51.2942L114.704 51.7327L114.634 52.1764L114.56 52.6251L114.482 53.0789L114.4 53.5374L114.312 54.0008L114.221 54.4688L114.125 54.9413L114.024 55.4182L113.919 55.8995L113.809 56.3849L113.694 56.8744L113.574 57.3679L113.45 57.8652L113.32 58.3663L113.185 58.8709L113.046 59.379L112.901 59.8904L112.751 60.4051L112.596 60.9229L112.435 61.4436L112.269 61.9672L112.098 62.4935L111.922 63.0223L111.74 63.5537L111.552 64.0873L111.359 64.6231L111.161 65.161L110.957 65.7008L110.748 66.2423L110.532 66.7855L110.312 67.3302L110.085 67.8763L109.853 68.4236L109.616 68.972L109.372 69.5213L109.123 70.0715L108.868 70.6223L108.608 71.1736L108.341 71.7254L108.069 72.2774L107.792 72.8295L107.508 73.3815L107.219 73.9334L106.924 74.485L106.623 75.0361L106.317 75.5866L106.005 76.1363L105.687 76.6852L105.364 77.233L105.035 77.7797L104.7 78.3251L104.36 78.869L104.014 79.4113L103.663 79.9518L103.306 80.4905L102.943 81.0272L102.575 81.5617L102.202 82.0939L101.823 82.6237L101.439 83.1509L101.049 83.6754L100.654 84.1971L100.254 84.7158L99.8491 85.2313L99.4388 85.7436L99.0233 86.2525L98.6028 86.7579L98.1773 87.2596L97.7469 87.7575L97.3116 88.2515L96.8715 88.7415L96.4267 89.2272L95.9771 89.7087L95.523 90.1858L95.0643 90.6582L94.6011 91.126L94.1335 91.589L93.6615 92.0471L93.1853 92.5001L92.7049 92.9479L92.2204 93.3905L91.7318 93.8276L91.2393 94.2593L90.743 94.6852L90.2429 95.1055L89.739 95.5199L89.2316 95.9283L88.7206 96.3306L88.2062 96.7268L87.6885 97.1167L87.1676 97.5001L86.6435 97.8771L86.1164 98.2475L85.5863 98.6112L85.0533 98.9682L84.5177 99.3182L83.9793 99.6613L83.4385 99.9973L82.8952 100.326L82.3496 100.648L81.8017 100.962L81.2518 101.269L80.6998 101.568L80.146 101.86L79.5904 102.144L79.0331 102.421L78.4743 102.689L77.914 102.95L77.3524 103.203L76.7896 103.448L76.2257 103.685L75.6609 103.913L75.0952 104.134L74.5288 104.346L73.9618 104.55L73.3943 104.745L72.8264 104.932L72.2583 105.111L71.6901 105.281L71.1218 105.443L70.5537 105.596L69.9859 105.74L69.4185 105.876L68.8515 106.003L68.2852 106.121L67.7197 106.231L67.155 106.332L66.5914 106.424L66.0289 106.507L65.4676 106.581L64.9078 106.646L64.3495 106.703L63.7928 106.75L63.238 106.789L62.685 106.818L62.1341 106.839L61.5853 106.851L61.0388 106.853L60.4947 106.847L59.9532 106.832L59.4143 106.808L58.8783 106.775L58.3451 106.733L57.8151 106.682L57.2881 106.622L56.7645 106.553L56.2443 106.476L55.7277 106.389L55.2147 106.294L54.7055 106.19L54.2003 106.077L53.699 105.956L53.202 105.826L52.7092 105.687L52.2208 105.539L51.7369 105.383L51.2576 105.218L50.7831 105.045L50.3135 104.864L49.8488 104.673L49.3893 104.475L48.9349 104.268L48.4859 104.053L48.0423 103.83L47.6042 103.599L47.1718 103.359L46.7451 103.112L46.3243 102.857L45.9094 102.594L45.5007 102.323L45.0981 102.044L44.7017 101.757L44.3118 101.463L43.9283 101.162L43.5513 100.853L43.181 100.537L42.8175 100.213L42.4608 99.8824L42.1111 99.5446L41.7684 99.1998L41.4328 98.8481L41.1043 98.4895L40.7832 98.1243L40.4694 97.7524L40.1631 97.3739L39.8643 96.9891L39.5731 96.5979L39.2896 96.2004L39.0138 95.7969L38.7458 95.3873L38.4858 94.9718L38.2336 94.5505L37.9895 94.1234L37.7535 93.6908L37.5257 93.2527L37.306 92.8093L37.0946 92.3605L36.8916 91.9067L36.6969 91.4478L36.5106 90.984L36.3328 90.5155L36.1636 90.0422L36.0029 89.5644L35.8508 89.0822L35.7074 88.5957L35.5727 88.105L35.4467 87.6103L35.3295 87.1116L35.2211 86.6091L35.1215 86.103L35.0308 85.5933L34.9489 85.0801L34.876 84.5637L34.812 84.0441L34.757 83.5215L34.7109 82.996L34.6739 82.4677L34.6458 81.9368L34.6267 81.4033L34.6167 80.8675L34.6156 80.3294L34.6236 79.7892L34.6407 79.2471L34.6667 78.703L34.7018 78.1573L34.7459 77.61L34.799 77.0612L34.8612 76.5111L34.9323 75.9599L35.0124 75.4075L35.1015 74.8543L35.1995 74.3003L35.3064 73.7456L35.4222 73.1904L35.5469 72.6348L35.6805 72.079L35.8229 71.523L35.974 70.9671L36.1339 70.4112L36.3025 69.8557L36.4798 69.3005L36.6658 68.7459L36.8603 68.1919L37.0634 67.6387L37.275 67.0864L37.495 66.5352L37.7234 65.9851L37.9602 65.4363L38.2052 64.8889L38.4585 64.343L38.72 63.7988L38.9896 63.2564L39.2672 62.7159L39.5528 62.1773L39.8464 61.641L40.1477 61.1068L40.4569 60.5751L40.7737 60.0458L41.0982 59.5192L41.4302 58.9952L41.7696 58.4741L42.1165 57.9559L42.4707 57.4407L42.832 56.9287L43.2006 56.42L43.5761 55.9146L43.9586 55.4127L44.348 54.9143L44.7441 54.4196L45.1469 53.9287L45.5563 53.4416L45.9722 52.9585L46.3944 52.4795L46.8229 52.0046L47.2576 51.5339L47.6984 51.0675L48.1451 50.6056L48.5977 50.1482L49.056 49.6953L49.52 49.2471L49.9895 48.8036L50.4644 48.365L50.9446 47.9313L51.43 47.5025L51.9204 47.0788L52.4159 46.6602L52.9161 46.2468L53.4211 45.8386L53.9306 45.4358L54.4447 45.0383L54.9631 44.6463L55.4857 44.2597L56.0124 43.8787L56.5431 43.5033L57.0776 43.1336L57.6159 42.7696L58.1578 42.4114L58.7031 42.0589L59.2518 41.7123L59.8037 41.3716L60.3586 41.0369L60.9165 40.7081L61.4773 40.3853L62.0407 40.0685L62.6067 39.7578L63.175 39.4532L63.7457 39.1547L64.3185 38.8623L64.8934 38.5761L65.4701 38.2961L66.0486 38.0223L66.6287 37.7548L67.2103 37.4934L67.7932 37.2383L68.3773 36.9894L68.9625 36.7468L69.5487 36.5105L70.1356 36.2804L70.7233 36.0565L71.3114 35.8389L71.9 35.6276L72.4888 35.4225L73.0778 35.2236L73.6667 35.031L74.2556 34.8446L74.8441 34.6643L75.4323 34.4902L76.0199 34.3223L76.6069 34.1605L77.193 34.0048L77.7783 33.8551L78.3624 33.7115L78.9454 33.5739L79.5271 33.4423L80.1073 33.3166L80.686 33.1968L81.2629 33.0829L81.838 32.9748L82.4112 32.8725L82.9823 32.7759L83.5512 32.6849L84.1177 32.5996L84.6818 32.5199L85.2434 32.4457L85.8023 32.3769L86.3583 32.3136L86.9115 32.2555L87.4616 32.2028L88.0085 32.1553L88.5522 32.1129L89.0925 32.0756L89.6293 32.0433L90.1625 32.0159L90.692 31.9934L91.2177 31.9757L91.7395 31.9627L92.2572 31.9543L92.7708 31.9504L93.2802 31.9511L93.7852 31.9561L94.2858 31.9654L94.7819 31.9789L95.2733 31.9965L95.76 32.0182L96.242 32.0438L96.719 32.0732L97.191 32.1064L97.6579 32.1433L98.1197 32.1837L98.5763 32.2275L99.0275 32.2748L99.4733 32.3252L99.9136 32.3789L100.348 32.4356L100.777 32.4952L101.201 32.5577L101.618 32.6229L102.03 32.6907L102.436 32.761L102.836 32.8338L103.23 32.9088L103.618 32.9861L103.999 33.0654L104.374 33.1466L104.744 33.2297L105.106 33.3146L105.463 33.401L105.813 33.4889L106.156 33.5783L106.493 33.6688L106.823 33.7606L107.147 33.8533L107.464 33.947L107.775 34.0414L108.079 34.1365L108.376 34.2322L108.666 34.3282L108.95 34.4246L109.226 34.5212L109.496 34.6178L109.759 34.7144L110.015 34.8107L110.264 34.9068L110.507 35.0025L110.742 35.0976L110.971 35.192L111.192 35.2856L111.407 35.3784L111.614 35.4701L111.815 35.5606L112.009 35.6499L112.196 35.7377L112.375 35.8241L112.548 35.9088L112.714 35.9918L112.874 36.0729L113.026 36.1519L113.171 36.2289L113.31 36.3037L113.441 36.3761L113.566 36.446L113.685 36.5134L113.796 36.578L113.901 36.6399L113.999 36.6988L114.09 36.7547L114.175 36.8075L114.253 36.857L114.324 36.9032L114.389 36.9458L114.448 36.9849L114.5 37.0203L114.546 37.0519L114.586 37.0796L114.619 37.1033L114.646 37.1229L114.667 37.1383L114.682 37.1494L114.691 37.1561L114.693 37.1583L114.69 37.1559L114.681 37.1489L114.667 37.137L114.646 37.1203L114.62 37.0986L114.589 37.0718L114.552 37.0399L114.509 37.0028L114.462 36.9604L114.409 36.9127L114.35 36.8594L114.287 36.8006L114.219 36.7362L114.146 36.6661L114.068 36.5902L113.985 36.5084L113.897 36.4208L113.805 36.3272L113.709 36.2275L113.608 36.1218L113.503 36.0099L113.393 35.8917L113.28 35.7673L113.162 35.6365L113.041 35.4993L112.916 35.3557L112.787 35.2056L112.654 35.0489L112.519 34.8857L112.379 34.7158L112.237 34.5392L112.091 34.356L111.942 34.166L111.79 33.9692L111.636 33.7655L111.478 33.5551L111.318 33.3377L111.156 33.1135L110.991 32.8823L110.824 32.6442L110.655 32.3991L110.483 32.1471L110.31 31.888L110.135 31.622L109.958 31.3489L109.78 31.0688L109.6 30.7816L109.418 30.4875L109.236 30.1863L109.052 29.878L108.868 29.5628L108.682 29.2405L108.496 28.9112L108.309 28.5749L108.121 28.2316L107.933 27.8813L107.745 27.5241L107.557 27.1599L107.368 26.7888L107.18 26.4109L106.992 26.0261L106.804 25.6344L106.616 25.236L106.429 24.8308L106.243 24.4188L106.057 24.0002L105.873 23.5749L105.689 23.143L105.507 22.7046L105.325 22.2597L105.145 21.8083L104.967 21.3504L104.79 20.8863L104.614 20.4158L104.441 19.9391L104.269 19.4562L104.1 18.9672L103.932 18.4722L103.767 17.9712L103.604 17.4643L103.444 16.9515L103.286 16.433L103.131 15.9088L102.978 15.379L102.829 14.8437L102.682 14.3029L102.539 13.7567L102.398 13.2053L102.261 12.6487L102.127 12.087L101.997 11.5203L101.871 10.9486L101.748 10.3722L101.628 9.79102L101.513 9.20523L101.401 8.61493L101.294 8.0202L101.191 7.42117L101.092 6.81792L100.997 6.21058L100.906 5.59924L100.82 4.98403L100.739 4.36505L100.662 3.74242L100.59 3.11625L100.522 2.48666L100.46 1.85376L100.402 1.21768L100.349 0.578537L100.301 -0.0635452L100.259 -0.708443L100.221 -1.35603L100.189 -2.00619L100.162 -2.65878L100.141 -3.31369L100.125 -3.97077L100.114 -4.62991L100.109 -5.29096L100.109 -5.9538L100.116 -6.61829L100.127 -7.2843L100.145 -7.95169L100.168 -8.62033L100.197 -9.29007L100.232 -9.96079L100.273 -10.6323L100.32 -11.3046L100.373 -11.9774L100.431 -12.6506L100.496 -13.3241L100.567 -13.9977L100.644 -14.6713L100.727 -15.3447L100.816 -16.0179L100.911 -16.6906L101.012 -17.3627L101.12 -18.0341L101.234 -18.7046L101.354 -19.3741L101.48 -20.0424L101.612 -20.7094L101.751 -21.375L101.896 -22.039L102.047 -22.7012L102.204 -23.3616L102.368 -24.0199L102.538 -24.676L102.714 -25.3298L102.896 -25.9812L103.084 -26.6299L103.279 -27.2759L103.479 -27.919L103.686 -28.5591L103.899 -29.1959L104.118 -29.8295L104.343 -30.4596L104.575 -31.086L104.812 -31.7088L105.055 -32.3276L105.304 -32.9424L105.559 -33.5531L105.82 -34.1594L106.087 -34.7613L106.36 -35.3586L106.638 -35.9512L106.922 -36.539L107.212 -37.1218L107.507 -37.6994L107.808 -38.2719L108.115 -38.8389L108.427 -39.4005L108.744 -39.9564L109.067 -40.5065L109.395 -41.0508L109.728 -41.589L110.066 -42.1211L110.41 -42.647L110.758 -43.1665L111.112 -43.6795L111.47 -44.1858L111.833 -44.6855L112.201 -45.1783L112.574 -45.6641L112.951 -46.1429L113.332 -46.6144L113.718 -47.0787L114.109 -47.5356L114.503 -47.985L114.902 -48.4267L115.305 -48.8608L115.712 -49.287L116.123 -49.7054L116.537 -50.1157L116.956 -50.5179L117.378 -50.912L117.803 -51.2977L118.232 -51.6751L118.664 -52.044L119.1 -52.4043L119.538 -52.7561L119.98 -53.0991L120.425 -53.4333L120.872 -53.7587L121.322 -54.0751L121.775 -54.3825L122.23 -54.6808L122.688 -54.9699L123.148 -55.2498L123.61 -55.5205L124.074 -55.7818L124.54 -56.0336L125.008 -56.2761L125.477 -56.5089L125.949 -56.7323L126.421 -56.9459L126.896 -57.15L127.371 -57.3443L127.847 -57.5288L128.325 -57.7035L128.803 -57.8684L129.283 -58.0234L129.763 -58.1685L130.243 -58.3036L130.724 -58.4287L131.205 -58.5439L131.687 -58.649L132.168 -58.7441L132.649 -58.8291L133.131 -58.904L133.612 -58.9688L134.092 -59.0235L134.572 -59.068L135.051 -59.1024L135.53 -59.1267L136.007 -59.1408L136.484 -59.1448L136.959 -59.1387L137.434 -59.1224L137.906 -59.096L138.378 -59.0594L138.847 -59.0128L139.315 -58.9561L139.781 -58.8892L140.245 -58.8124L140.707 -58.7255L141.166 -58.6285L141.624 -58.5216L142.078 -58.4047L142.531 -58.2779L142.98 -58.1412L143.427 -57.9947L143.87 -57.8383L144.311 -57.6722L144.749 -57.4963L145.183 -57.3107L145.614 -57.1155L146.041 -56.9106L146.464 -56.6963L146.884 -56.4724L147.301 -56.2392L147.713 -55.9965L148.121 -55.7445L148.525 -55.4833L148.924 -55.2129L149.32 -54.9334L149.71 -54.6449L150.097 -54.3473L150.478 -54.0409L150.855 -53.7256L151.227 -53.4016L151.594 -53.069L151.956 -52.7277L152.313 -52.3779L152.664 -52.0197L153.01 -51.6532L153.351 -51.2785L153.686 -50.8956L154.016 -50.5046L154.34 -50.1057L154.658 -49.6989L154.97 -49.2844L155.276 -48.8622L155.577 -48.4324L155.871 -47.9952L156.159 -47.5506L156.441 -47.0988L156.716 -46.6398L156.985 -46.1738L157.248 -45.7009L157.504 -45.2212L157.754 -44.7348L157.996 -44.2418L158.233 -43.7424L158.462 -43.2366L158.685 -42.7246L158.9 -42.2064L159.109 -41.6824L159.311 -41.1524L159.506 -40.6168L159.693 -40.0755L159.874 -39.5287L160.047 -38.9766L160.213 -38.4193L160.372 -37.8569L160.524 -37.2895L160.668 -36.7173L160.805 -36.1404L160.935 -35.5589L161.057 -34.973L161.172 -34.3828L161.279 -33.7884L161.379 -33.19L161.471 -32.5877L161.556 -31.9816L161.633 -31.372L161.703 -30.7588L161.765 -30.1423L161.819 -29.5226L161.866 -28.8999L161.905 -28.2742L161.937 -27.6457L161.961 -27.0146L161.978 -26.381L161.986 -25.745L161.988 -25.1068L161.982 -24.4666L161.968 -23.8243L161.946 -23.1803L161.918 -22.5346L161.881 -21.8874L161.837 -21.2388L161.786 -20.5889L161.727 -19.938L161.661 -19.2861L161.587 -18.6333L161.506 -17.9799L161.418 -17.3259L161.322 -16.6716L161.219 -16.0169L161.109 -15.3621L160.991 -14.7073L160.867 -14.0527L160.735 -13.3983L160.596 -12.7443L160.45 -12.0909L160.298 -11.4381L160.138 -10.7861L159.972 -10.1351L159.798 -9.48516L159.618 -8.8364L159.432 -8.18897L159.238 -7.54299L159.039 -6.89859L158.832 -6.2559L158.62 -5.61504L158.4 -4.97614L158.175 -4.3393L157.944 -3.70467L157.706 -3.07236L157.462 -2.44248L157.212 -1.81516L156.957 -1.19051L156.696 -0.568638L156.428 0.0503311L156.156 0.66629L155.877 1.27913L155.594 1.88873L155.305 2.495L155.01 3.09782L154.711 3.6971L154.406 4.29272L154.096 4.8846L153.782 5.47262L153.463 6.05669L153.139 6.63672L152.81 7.2126L152.477 7.78426L152.14 8.35158L151.798 8.9145L151.452 9.47291L151.102 10.0267L150.749 10.5759L150.391 11.1203L150.03 11.6599L149.665 12.1946L149.296 12.7243L148.924 13.2489L148.549 13.7684L148.171 14.2827L147.79 14.7917L147.405 15.2954L147.019 15.7937L146.629 16.2866L146.237 16.7739L145.842 17.2557L145.445 17.7318L145.046 18.2023L144.645 18.667L144.242 19.126L143.837 19.5791L143.431 20.0263L143.023 20.4677L142.613 20.9031L142.203 21.3325L141.791 21.7558L141.378 22.1732L140.964 22.5844L140.549 22.9895L140.134 23.3885L139.718 23.7813L139.302 24.1679L138.886 24.5483L138.469 24.9225L138.052 25.2904L137.636 25.6521L137.22 26.0076L136.804 26.3567L136.388 26.6996L135.974 27.0363L135.56 27.3666L135.147 27.6906L134.735 28.0084L134.324 28.3199L133.914 28.6252L133.506 28.9242L133.099 29.217L132.694 29.5035L132.291 29.7838L131.889 30.058L131.49 30.326L131.093 30.5878L130.698 30.8435L130.305 31.0932L129.915 31.3367L129.527 31.5743L129.143 31.8059L128.761 32.0315L128.382 32.2512L128.006 32.465L127.634 32.673L127.265 32.8751L126.899 33.0716L126.537 33.2624L126.178 33.4475L125.823 33.627L125.472 33.801L125.125 33.9695L124.783 34.1326L124.444 34.2904L124.11 34.4428L123.78 34.59L123.454 34.7321L123.134 34.869L122.818 35.001L122.506 35.1279L122.2 35.25L121.899 35.3673L121.603 35.4799L121.312 35.5878L121.026 35.6911L120.745 35.79L120.47 35.8844L120.201 35.9745L119.937 36.0604L119.679 36.1421L119.427 36.2198L119.18 36.2935L118.939 36.3633L118.705 36.4293L118.476 36.4917L118.254 36.5504L118.038 36.6057L117.828 36.6575L117.624 36.7061L117.427 36.7514L117.236 36.7937L117.052 36.8329L116.875 36.8693L116.704 36.9029L116.539 36.9338L116.382 36.9621L116.231 36.9879L116.087 37.0114L115.95 37.0327L115.82 37.0518L115.696 37.0688L115.58 37.084L115.471 37.0973L115.369 37.109L115.274 37.119L115.186 37.1276L115.105 37.1349L115.032 37.1409L114.965 37.1458L114.906 37.1497L114.854 37.1526L114.809 37.1548L114.772 37.1564L114.742 37.1574L114.719 37.158L114.703 37.1583L114.695 37.1583L114.694 37.1583L114.7 37.1584L114.714 37.1586L114.735 37.1591L114.763 37.16L114.798 37.1614L114.841 37.1634L114.891 37.1661L114.948 37.1697L115.013 37.1743L115.084 37.18L115.163 37.1869L115.249 37.1952L115.342 37.2048L115.442 37.216L115.55 37.2289L115.664 37.2435L115.785 37.26L115.913 37.2786L116.049 37.2992L116.191 37.3221L116.34 37.3473L116.495 37.3749L116.658 37.4051L116.827 37.4379L117.003 37.4735L117.185 37.5119L117.374 37.5534L117.57 37.5979L117.771 37.6455L117.98 37.6964L118.194 37.7508L118.415 37.8085L118.642 37.8699L118.875 37.9349L119.113 38.0037L119.358 38.0763L119.609 38.1529L119.866 38.2335L120.128 38.3182L120.396 38.4071L120.669 38.5004L120.948 38.598L121.233 38.7001L121.522 38.8068L121.817 38.918L122.117 39.034L122.422 39.1548L122.732 39.2804L123.047 39.411L123.366 39.5466L123.69 39.6872L124.019 39.833L124.352 39.984L124.689 40.1403L125.031 40.3019L125.377 40.4689L125.727 40.6414L126.08 40.8194L126.438 41.003L126.799 41.1922L127.164 41.3871L127.532 41.5877L127.904 41.7941L128.279 42.0063L128.657 42.2244L129.038 42.4484L129.422 42.6783L129.808 42.9142L130.198 43.1561L130.59 43.4041L130.984 43.6582L131.381 43.9183L131.78 44.1846L132.18 44.4571L132.583 44.7357L132.988 45.0206L133.394 45.3116L133.802 45.6089L134.211 45.9124L134.622 46.2222L135.034 46.5383L135.446 46.8606L135.86 47.1893L136.275 47.5241L136.69 47.8653L137.106 48.2128L137.522 48.5665L137.938 48.9265L138.355 49.2927L138.771 49.6652L139.188 50.0439L139.604 50.4288L140.02 50.8199L140.436 51.2172L140.85 51.6206L141.265 52.0302L141.678 52.4458L142.09 52.8676L142.501 53.2953L142.911 53.729L143.319 54.1688L143.726 54.6144L144.131 55.0659L144.535 55.5233L144.937 55.9864L145.336 56.4553L145.734 56.9299L146.129 57.4101L146.522 57.8959L146.912 58.3873L147.3 58.8841L147.685 59.3863L148.067 59.8939L148.446 60.4068L148.822 60.9249L149.194 61.4481L149.564 61.9764L149.93 62.5097L150.292 63.048L150.651 63.5911L151.006 64.1389L151.357 64.6915L151.704 65.2487L152.046 65.8103L152.385 66.3765L152.719 66.947L153.049 67.5217L153.374 68.1006L153.695 68.6836L154.011 69.2705L154.322 69.8613L154.628 70.4559L154.929 71.0542L155.224 71.6561L155.515 72.2614L155.8 72.8701L156.08 73.4821L156.354 74.0972L156.623 74.7153L156.886 75.3364L157.143 75.9603L157.394 76.5869L157.64 77.2161L157.879 77.8478L158.112 78.4818L158.339 79.118L158.56 79.7564L158.775 80.3967L158.983 81.0389L159.184 81.6829L159.379 82.3284L159.568 82.9755L159.75 83.6239L159.925 84.2735L160.093 84.9243L160.255 85.576L160.409 86.2285L160.557 86.8818L160.698 87.5356L160.831 88.1899L160.958 88.8445L161.077 89.4993L161.189 90.1541L161.294 90.8088L161.392 91.4633L161.482 92.1174L161.566 92.771L161.641 93.4239L161.71 94.076L161.77 94.7273L161.824 95.3774L161.87 96.0264L161.908 96.674L161.939 97.3201L161.963 97.9646L161.979 98.6074L161.987 99.2482L161.988 99.887L161.981 100.524L161.966 101.158L161.944 101.79L161.915 102.419L161.877 103.045L161.833 103.669L161.78 104.289L161.72 104.907L161.653 105.521L161.578 106.132L161.495 106.739L161.405 107.342L161.307 107.941L161.202 108.537L161.089 109.128L160.969 109.715L160.842 110.298L160.707 110.876L160.564 111.45L160.415 112.019L160.258 112.582L160.094 113.141L159.922 113.695L159.744 114.243L159.558 114.786L159.365 115.323L159.165 115.854L158.958 116.38L158.744 116.9L158.524 117.413L158.296 117.921L158.062 118.422L157.821 118.917L157.573 119.405L157.319 119.887L157.058 120.362L156.79 120.829L156.517 121.29L156.237 121.744L155.95 122.191L155.658 122.63L155.359 123.062L155.055 123.486L154.744 123.903L154.427 124.312L154.105 124.713L153.777 125.106L153.443 125.491L153.104 125.868L152.759 126.237L152.409 126.597L152.054 126.949L151.694 127.293L151.328 127.628L150.958 127.954L150.582 128.272L150.202 128.581L149.817 128.881L149.427 129.172L149.033 129.454L148.635 129.727L148.232 129.991L147.825 130.245L147.414 130.49L146.999 130.726L146.58 130.953L146.157 131.17L145.731 131.377L145.301 131.575L144.868 131.763L144.431 131.942L143.992 132.11L143.549 132.269L143.103 132.419L142.654 132.558L142.203 132.688L141.749 132.807L141.292 132.917L140.833 133.017L140.372 133.106L139.908 133.186L139.443 133.255L138.976 133.315L138.506 133.364L138.036 133.404L137.563 133.433L137.09 133.452L136.614 133.461L136.138 133.46L135.661 133.448L135.183 133.427L134.704 133.395L134.224 133.353L133.743 133.301L133.263 133.239L132.781 133.167L132.3 133.085L131.819 132.993L131.337 132.89L130.856 132.778L130.375 132.656L129.894 132.523L129.414 132.381L128.935 132.229L128.456 132.066L127.978 131.894L127.501 131.712L127.026 131.521L126.551 131.32L126.078 131.108L125.606 130.888L125.136 130.658L124.668 130.418L124.201 130.168L123.737 129.91L123.274 129.642L122.814 129.364L122.355 129.078L121.899 128.782L121.446 128.477L120.995 128.163L120.547 127.84L120.102 127.508L119.659 127.168L119.22 126.818L118.783 126.46L118.35 126.094L117.92 125.719L117.494 125.335L117.071 124.943L116.652 124.543L116.236 124.135L115.824 123.719L115.416 123.295L115.012 122.863L114.612 122.424L114.216 121.976L113.825 121.521L113.438 121.059L113.055 120.59L112.676 120.113L112.303 119.629L111.933 119.138L111.569 118.64L111.209 118.136L110.855 117.624L110.505 117.107L110.16 116.583L109.82 116.052L109.486 115.516L109.156 114.973L108.832 114.424L108.513 113.87L108.2 113.31L107.892 112.745L107.589 112.174L107.292 111.597L107.001 111.016L106.715 110.43L106.435 109.838L106.161 109.242L105.893 108.642L105.63 108.036L105.374 107.427L105.123 106.813L104.878 106.195L104.639 105.574L104.406 104.948L104.179 104.319L103.959 103.687L103.744 103.051L103.535 102.411L103.333 101.769L103.137 101.124L102.947 100.476L102.763 99.8253L102.585 99.1722L102.414 98.5166L102.248 97.8589L102.089 97.1991L101.937 96.5374L101.79 95.8739L101.65 95.2087L101.516 94.5421L101.388 93.8741L101.266 93.2049L101.151 92.5346L101.041 91.8635L100.938 91.1915L100.841 90.519L100.75 89.8459L100.666 89.1726L100.587 88.499L100.515 87.8254L100.448 87.1519L100.388 86.4786L100.334 85.8056L100.285 85.1332L100.243 84.4615L100.206 83.7905L100.176 83.1205L100.151 82.4515L100.132 81.7838L100.118 81.1174L100.111 80.4525L100.109 79.7892L100.112 79.1276L100.121 78.4679L100.136 77.8103L100.156 77.1548L100.181 76.5015L100.212 75.8507L100.248 75.2024L100.289 74.5567L100.336 73.9139L100.387 73.2739L100.443 72.637L100.505 72.0032L100.571 71.3727L100.642 70.7456L100.717 70.1219L100.797 69.502L100.882 68.8857L100.972 68.2733L101.065 67.6648L101.163 67.0605L101.265 66.4603L101.372 65.8643L101.482 65.2728L101.596 64.6858L101.715 64.1033L101.837 63.5256L101.962 62.9526L102.091 62.3846L102.224 61.8215L102.36 61.2634L102.5 60.7106L102.642 60.163L102.788 59.6207L102.937 59.0839L103.089 58.5525L103.243 58.0268L103.4 57.5067L103.56 56.9924L103.722 56.4838L103.887 55.9812L104.054 55.4845L104.223 54.9939L104.394 54.5093L104.567 54.0309L104.741 53.5588L104.918 53.0929L105.096 52.6333L105.276 52.1801L105.457 51.7334L105.639 51.2932L105.822 50.8595L106.007 50.4324L106.192 50.0119L106.378 49.5982L106.565 49.1911L106.752 48.7908L106.94 48.3973L107.128 48.0106L107.317 47.6308L107.505 47.2578L107.694 46.8917L107.882 46.5326L108.07 46.1804L108.257 45.8352L108.445 45.497L108.631 45.1658L108.817 44.8416L109.002 44.5244L109.186 44.2142L109.368 43.9111L109.55 43.615L109.73 43.3259L109.909 43.0439L110.087 42.7689L110.262 42.5009L110.436 42.2399L110.608 41.9859L110.778 41.7389L110.946 41.4989L111.111 41.2659L111.274 41.0397L111.435 40.8205L111.593 40.6082L111.748 40.4027L111.901 40.204L112.05 40.0121L112.197 39.827L112.34 39.6486L112.481 39.4769L112.618 39.3119L112.751 39.1534L112.881 39.0015L113.007 38.8561L113.129 38.7172L113.248 38.5846L113.363 38.4585L113.473 38.3386L113.579 38.225L113.681 38.1175L113.779 38.0162L113.872 37.9209L113.961 37.8317L114.045 37.7483L114.125 37.6709L114.199 37.5992L114.269 37.5332L114.334 37.4728L114.393 37.4181L114.448 37.3688L114.497 37.3249L114.541 37.2864L114.579 37.2531L114.612 37.2249L114.64 37.2019L114.662 37.1838L114.678 37.1706L114.689 37.1622L114.693 37.1585L114.692 37.1595L114.685 37.165L114.672 37.1749L114.652 37.1891L114.627 37.2076L114.595 37.2301L114.557 37.2568L114.513 37.2873L114.463 37.3217L114.406 37.3598L114.343 37.4015L114.273 37.4467L114.197 37.4953L114.114 37.5472L114.024 37.6022L113.928 37.6603L113.825 37.7214L113.716 37.7853L113.599 37.8519L113.476 37.9212L113.347 37.9929L113.21 38.067L113.066 38.1434L112.916 38.2219L112.759 38.3025L112.595 38.3849L112.424 38.4692L112.246 38.5551L112.061 38.6426L111.869 38.7315L111.67 38.8217L111.464 38.9131L111.252 39.0055L111.032 39.0989L110.805 39.1931L110.572 39.2881L110.332 39.3836L110.084 39.4796L109.83 39.5759L109.569 39.6724L109.301 39.769L109.026 39.8656L108.744 39.962L108.456 40.0582L108.161 40.154L107.859 40.2493L107.55 40.3439L107.235 40.4378L106.913 40.5308L106.584 40.6228L106.249 40.7137L105.907 40.8034L105.559 40.8917L105.205 40.9786L104.844 41.0639L104.476 41.1475L104.103 41.2292L103.723 41.3091L103.337 41.3869L102.945 41.4625L102.546 41.5359L102.142 41.607L101.732 41.6755L101.316 41.7414L100.894 41.8046L100.467 41.8651L100.033 41.9226L99.5945 41.9771L99.1502 42.0284L98.7005 42.0765L98.2454 42.1213L97.785 42.1627L97.3195 42.2005L96.8489 42.2347L96.3732 42.2652L95.8926 42.2919L95.4072 42.3146L94.917 42.3334L94.4222 42.348L93.9229 42.3585L93.419 42.3647L92.9109 42.3665L92.3984 42.3639L91.8818 42.3568L91.3611 42.345L90.8365 42.3286L90.3081 42.3074L89.7758 42.2814L89.24 42.2505L88.7007 42.2145L88.1579 42.1735L87.6118 42.1274L87.0626 42.0761L86.5103 42.0196L85.955 41.9577L85.3969 41.8904L84.836 41.8177L84.2726 41.7395L83.7067 41.6557L83.1384 41.5663L82.5679 41.4712L81.9953 41.3705L81.4207 41.264L80.8443 41.1516L80.2661 41.0335L79.6863 40.9094L79.105 40.7794L78.5224 40.6435L77.9385 40.5015L77.3536 40.3535L76.7676 40.1995L76.1809 40.0394L75.5934 39.8731L75.0054 39.7007L74.4169 39.5221L73.8282 39.3374L73.2392 39.1465L72.6503 38.9493L72.0614 38.7459L71.4727 38.5363L70.8844 38.3204L70.2967 38.0983L69.7095 37.8699L69.1231 37.6353L68.5376 37.3944L67.9532 37.1472L67.3699 36.8938L66.788 36.6342L66.2075 36.3683L65.6285 36.0962L65.0513 35.8179L64.4759 35.5334L63.9025 35.2428L63.3313 34.9459L62.7622 34.643L62.1956 34.334L61.6315 34.0189L61.07 33.6977L60.5113 33.3705L59.9555 33.0374L59.4028 32.6983L58.8532 32.3533L58.3069 32.0025L57.7641 31.6458L57.2248 31.2834L56.6892 30.9152L56.1575 30.5414L55.6297 30.162L55.1059 29.7769L54.5863 29.3864L54.0711 28.9904L53.5603 28.589L53.0541 28.1823L52.5525 27.7703L52.0557 27.3531L51.5639 26.9308L51.0771 26.5034L50.5955 26.0711L50.1191 25.6338L49.6481 25.1916L49.1826 24.7447L48.7227 24.2931L48.2686 23.8369L47.8202 23.3762L47.3778 22.9111L46.9415 22.4416L46.5112 21.9678L46.0873 21.4899L45.6697 21.0079L45.2585 20.5219L44.8539 20.032L44.4559 19.5384L44.0647 19.041L43.6803 18.54L43.3028 18.0356L42.9324 17.5277L42.569 17.0166L42.2129 16.5023L41.864 15.9849L41.5225 15.4646L41.1884 14.9414L40.8619 14.4155L40.543 13.8869L40.2317 13.3558L39.9282 12.8224L39.6325 12.2866L39.3447 11.7486L39.0649 11.2087L38.7931 10.6667L38.5294 10.123L38.2739 9.5776L38.0265 9.03061L37.7875 8.48218L37.5568 7.93243L37.3344 7.38148L37.1205 6.82947L36.9151 6.2765L36.7182 5.72272L36.5299 5.16826L36.3503 4.61323L36.1793 4.05777L36.017 3.50201L35.8634 2.94608L35.7186 2.3901L35.5827 1.83421L35.4555 1.27854L35.3373 0.723225L35.2279 0.168396L35.1274 -0.385822L35.0359 -0.939289L34.9534 -1.49187L34.8798 -2.04344L34.8152 -2.59387L34.7596 -3.14301L34.713 -3.69074L34.6754 -4.23692L34.6469 -4.78143L34.6274 -5.32412L34.6169 -5.86486L34.6155 -6.40353L34.6231 -6.93998L34.6397 -7.4741L34.6653 -8.00574L34.6999 -8.53477L34.7435 -9.06107L34.7961 -9.58449L34.8576 -10.1049L34.9281 -10.6222L35.0075 -11.1363L35.0958 -11.6469L35.1929 -12.1541L35.2989 -12.6576L35.4137 -13.1573L35.5373 -13.6531L35.6696 -14.1449L35.8106 -14.6326L35.9603 -15.116L36.1187 -15.595L36.2856 -16.0695L36.461 -16.5394L36.645 -17.0045L36.8374 -17.4647L37.0381 -17.92L37.2472 -18.3701L37.4646 -18.815L37.6903 -19.2546L37.924 -19.6887L38.1659 -20.1173L38.4159 -20.5402L38.6738 -20.9573L38.9396 -21.3685L39.2132 -21.7737L39.4946 -22.1729L39.7837 -22.5658L40.0805 -22.9524L40.3847 -23.3326L40.6965 -23.7063L41.0156 -24.0734L41.342 -24.4338L41.6757 -24.7874L42.0164 -25.1341L42.3643 -25.4738L42.7191 -25.8065L43.0807 -26.132L43.4491 -26.4503L43.8243 -26.7613L44.206 -27.0648L44.5942 -27.3609L44.9888 -27.6494L45.3897 -27.9302L45.7968 -28.2034L46.21 -28.4687L46.6292 -28.7262L47.0542 -28.9758L47.4851 -29.2174L47.9216 -29.4509L48.3637 -29.6763L48.8113 -29.8935L49.2642 -30.1025L49.7224 -30.3032L50.1856 -30.4956L50.6539 -30.6795L51.1271 -30.855L51.6051 -31.0221L52.0877 -31.1805L52.5749 -31.3304L53.0665 -31.4717L53.5624 -31.6043L54.0625 -31.7283L54.5666 -31.8434L55.0748 -31.9499L55.5867 -32.0475L56.1024 -32.1363L56.6216 -32.2163L57.1443 -32.2874L57.6703 -32.3497L58.1995 -32.403L58.7318 -32.4474L59.2671 -32.4829L59.8052 -32.5095L60.346 -32.5271L60.8894 -32.5358L61.4352 -32.5355L61.9834 -32.5262L62.5338 -32.508L63.0862 -32.4809L63.6406 -32.4448L64.1967 -32.3998L64.7546 -32.3458L65.314 -32.283L65.8749 -32.2112L66.4371 -32.1306L67.0004 -32.0411L67.5648 -31.9428L68.1301 -31.8357L68.6962 -31.7198L69.263 -31.5952L69.8303 -31.4618L70.3981 -31.3198L70.9661 -31.1691L71.5343 -31.0098L72.1025 -30.842L72.6707 -30.6656L73.2386 -30.4808L73.8062 -30.2875L74.3734 -30.0859L74.94 -29.876L75.5059 -29.6578L76.071 -29.4314L76.6352 -29.1968L77.1983 -28.9542L77.7602 -28.7035L78.3208 -28.4449L78.8801 -28.1784L79.4378 -27.9041L79.9939 -27.622L80.5482 -27.3323L81.1007 -27.035L81.6512 -26.7302L82.1996 -26.4179L82.7459 -26.0983L83.2898 -25.7714L83.8313 -25.4374L84.3704 -25.0962L84.9068 -24.7481L85.4405 -24.3931L85.9713 -24.0312L86.4993 -23.6626L87.0242 -23.2875L87.5461 -22.9057L88.0647 -22.5176L88.58 -22.1232L89.0919 -21.7225L89.6003 -21.3158L90.1051 -20.903L90.6063 -20.4843L91.1037 -20.0599L91.5972 -19.6298L92.0869 -19.1942L92.5725 -18.7531L93.054 -18.3067L93.5314 -17.8551L94.0045 -17.3984L94.4733 -16.9368L94.9377 -16.4703L95.3977 -15.9991L95.8531 -15.5233L96.3039 -15.043L96.7501 -14.5584L97.1915 -14.0696L97.6281 -13.5766L98.0598 -13.0798L98.4867 -12.5791L98.9085 -12.0747L99.3254 -11.5668L99.7371 -11.0554L100.144 -10.5407L100.545 -10.0229L100.941 -9.50205L101.332 -8.97831L101.718 -8.45183L102.098 -7.92274L102.473 -7.39117L102.843 -6.85727L103.207 -6.32117L103.565 -5.78301L103.918 -5.24295L104.266 -4.7011L104.607 -4.15762L104.944 -3.61265L105.274 -3.06633L105.599 -2.5188L105.919 -1.9702L106.232 -1.42067L106.54 -0.870361L106.842 -0.319412L107.139 0.23204L107.43 0.783852L107.715 1.33588L107.994 1.88797L108.267 2.44001L108.535 2.99183L108.797 3.5433L109.054 4.09428L109.304 4.64463L109.549 5.1942L109.789 5.74287L110.022 6.29047L110.25 6.8369L110.473 7.38199L110.689 7.92561L110.9 8.46764L111.106 9.00792L111.306 9.54632L111.5 10.0827L111.689 10.617L111.872 11.1489L112.05 11.6785L112.223 12.2055L112.39 12.7298L112.552 13.2514L112.709 13.7699L112.86 14.2855L113.006 14.7978L113.148 15.3069L113.284 15.8124L113.415 16.3145L113.541 16.8128L113.662 17.3074L113.778 17.798L113.889 18.2845L113.996 18.7669L114.098 19.2451L114.195 19.7188L114.288 20.1881L114.376 20.6527L114.46 21.1126L114.539 21.5677L114.615 22.0178L114.686 22.4629L114.752 22.9028L114.815 23.3375L114.874 23.7669L114.929 24.1908L114.98 24.6091L115.027 25.0219L115.071 25.4288L115.111 25.83L115.148 26.2253L115.181 26.6146L115.211 26.9977L115.237 27.3748L115.261 27.7455L115.281 28.11L115.299 28.468L115.314 28.8196L115.325 29.1646L115.335 29.503L115.341 29.8347L115.346 30.1597L115.348 30.4778L115.347 30.7891L115.345 31.0933L115.34 31.3906L115.333 31.6809L115.325 31.964L115.315 32.2399L115.303 32.5087L115.29 32.7702L115.275 33.0243L115.259 33.2712L115.241 33.5106L115.223 33.7426L115.203 33.9672L115.183 34.1842L115.162 34.3937L115.14 34.5957L115.118 34.7901L115.095 34.9769L115.072 35.1561L115.048 35.3276L115.024 35.4914L115.001 35.6476L114.977 35.7961L114.954 35.9369L114.931 36.07L114.908 36.1954L114.886 36.313L114.865 36.423L114.844 36.5252L114.824 36.6198L114.805 36.7066L114.788 36.7858L114.771 36.8573L114.756 36.9211L114.742 36.9773L114.73 37.0258L114.719 37.0668L114.71 37.1001L114.703 37.1259L114.698 37.1442L114.694 37.155L114.693 37.1583L114.695 37.1542L114.698 37.1427L114.704 37.1239L114.713 37.0977L114.724 37.0643L114.739 37.0237L114.756 36.9759L114.775 36.9209L114.799 36.859L114.825 36.79L114.854 36.714L114.887 36.6311L114.923 36.5415L114.963 36.445L115.006 36.3419L115.054 36.2321L115.105 36.1157L115.159 35.9929L115.218 35.8636L115.281 35.728L115.348 35.5861L115.42 35.438L115.495 35.2839L115.575 35.1237L115.66 34.9575L115.749 34.7855L115.843 34.6078L115.941 34.4243L116.044 34.2353L116.153 34.0408L116.266 33.841L116.384 33.6358L116.507 33.4254L116.635 33.2099L116.768 32.9894L116.907 32.7641L117.051 32.5339L117.2 32.299L117.354 32.0596L117.515 31.8158L117.68 31.5675L117.851 31.315L118.028 31.0584L118.211 30.7978L118.399 30.5332L118.593 30.2649L118.793 29.9929L118.998 29.7173L119.21 29.4383L119.427 29.156L119.65 28.8705L119.88 28.582L120.115 28.2905L120.356 27.9961L120.603 27.6991L120.857 27.3995L121.116 27.0974L121.382 26.7931L121.654 26.4865L121.931 26.1779L122.215 25.8673L122.505 25.5549L122.802 25.2409L123.104 24.9253L123.413 24.6083L123.728 24.29L124.049 23.9705L124.376 23.6501L124.709 23.3287L125.049 23.0066L125.395 22.6838L125.747 22.3606L126.105 22.037L126.469 21.7132L126.839 21.3892L127.215 21.0653L127.597 20.7416L127.986 20.4182L128.38 20.0952L128.78 19.7728L129.187 19.451L129.599 19.1301L130.017 18.8102L130.441 18.4914L130.87 18.1737L131.306 17.8574L131.747 17.5426L132.194 17.2294L132.646 16.918L133.104 16.6084L133.568 16.3008L134.037 15.9953L134.511 15.692L134.991 15.3911L135.476 15.0927L135.966 14.797L136.461 14.5039L136.962 14.2137L137.468 13.9265L137.978 13.6424L138.493 13.3615L139.014 13.0839L139.539 12.8098L140.068 12.5393L140.603 12.2724L141.141 12.0093L141.684 11.7501L142.232 11.495L142.784 11.2439L143.34 10.9971L143.9 10.7546L144.464 10.5166L145.032 10.2831L145.603 10.0542L146.179 9.83011L146.758 9.61084L147.34 9.39651L147.926 9.18723L148.515 8.98307L149.108 8.78413L149.703 8.59052L150.302 8.40231L150.903 8.21957L151.508 8.04243L152.114 7.87094L152.724 7.70519L153.336 7.54527L153.95 7.39124L154.566 7.24319L155.185 7.1012L155.805 6.96532L156.428 6.83564L157.052 6.71223L157.677 6.59514L158.305 6.48444L158.933 6.3802L159.563 6.28249L160.194 6.19134L160.826 6.10682L161.459 6.02899L162.093 5.9579L162.727 5.8936L163.362 5.83614L163.997 5.78555L164.632 5.74188L165.268 5.70519L165.903 5.6755L166.538 5.65285L167.173 5.63728L167.808 5.62882L168.442 5.62749L169.076 5.63334L169.708 5.64638L170.34 5.66663L170.971 5.69411L171.6 5.72886L172.228 5.77087L172.855 5.82018L173.48 5.87679L174.103 5.94069L174.724 6.01192L175.343 6.09046L175.961 6.17632L176.576 6.26952L177.188 6.37003L177.798 6.47785L178.405 6.59299L179.01 6.71543L179.611 6.84515L180.21 6.98216L180.805 7.12643L181.397 7.27794L181.985 7.43667L182.57 7.6026L183.151 7.7757L183.728 7.95596L184.302 8.14333L184.871 8.33779L185.436 8.53931L185.996 8.74783L186.552 8.96334L187.104 9.18578L187.65 9.41512L188.192 9.65132L188.729 9.89431L189.26 10.1441L189.787 10.4005L190.308 10.6636L190.824 10.9333L191.333 11.2096L191.838 11.4923L192.336 11.7814L192.829 12.0769L193.315 12.3786L193.795 12.6866L194.269 13.0008L194.737 13.321L195.198 13.6472L195.653 13.9794L196.101 14.3174L196.542 14.6611L196.976 15.0106L197.403 15.3657L197.823 15.7263L198.236 16.0923L198.641 16.4637L199.039 16.8404L199.43 17.2222L199.813 17.6091L200.188 18.001L200.556 18.3978L200.915 18.7994L201.267 19.2057L201.611 19.6165L201.947 20.0319L202.274 20.4516L202.593 20.8757L202.904 21.3039L203.207 21.7361L203.501 22.1724L203.786 22.6125L204.063 23.0563L204.331 23.5038L204.591 23.9547L204.842 24.4091L205.083 24.8668L205.316 25.3276L205.54 25.7915L205.755 26.2583L205.961 26.7279L206.158 27.2002L206.346 27.6751L206.524 28.1525L206.693 28.6322L206.853 29.1141L207.003 29.598L207.144 30.0839L207.276 30.5717L207.398 31.0611L207.511 31.5522L207.615 32.0447L207.708 32.5385L207.793 33.0335L207.867 33.5296L207.933 34.0266L207.988 34.5244L208.034 35.023L208.07 35.522L208.097 36.0215L208.114 36.5213L208.122 37.0213L208.122 37.1583Z" stroke="#B072FF"/>
<path fill-rule="evenodd" clip-rule="evenodd" d="M196.229 -9.59901L196.459 -9.16343L196.68 -8.72282L196.892 -8.27728L197.096 -7.82691L197.292 -7.37186L197.479 -6.91223L197.657 -6.44813L197.826 -5.97969L197.987 -5.50703L198.139 -5.03027L198.282 -4.54953L198.416 -4.06494L198.541 -3.57662L198.657 -3.08469L198.764 -2.58928L198.863 -2.09052L198.952 -1.58853L199.032 -1.08344L199.103 -0.575381L199.165 -0.0644741L199.218 0.449139L199.261 0.965343L199.296 1.484L199.321 2.00497L199.337 2.52814L199.344 3.05338L199.342 3.58054L199.33 4.1095L199.309 4.64012L199.279 5.17228L199.24 5.70585L199.192 6.24069L199.134 6.77665L199.068 7.31364L198.992 7.85148L198.907 8.39008L198.812 8.92929L198.709 9.46897L198.597 10.009L198.475 10.5492L198.345 11.0896L198.205 11.6299L198.057 12.17L197.899 12.7098L197.733 13.2492L197.558 13.788L197.374 14.3261L197.181 14.8634L196.979 15.3998L196.769 15.9351L196.55 16.4691L196.322 17.0019L196.086 17.5332L195.842 18.063L195.589 18.591L195.327 19.1173L195.057 19.6416L194.779 20.1639L194.493 20.6839L194.199 21.2017L193.896 21.7171L193.586 22.23L193.267 22.7402L192.941 23.2477L192.607 23.7523L192.266 24.254L191.916 24.7525L191.559 25.2479L191.195 25.74L190.824 26.2287L190.445 26.7138L190.059 27.1954L189.666 27.6733L189.265 28.1473L188.858 28.6175L188.445 29.0836L188.024 29.5456L187.597 30.0035L187.163 30.457L186.723 30.9062L186.277 31.351L185.824 31.7911L185.365 32.2267L184.901 32.6575L184.43 33.0836L183.954 33.5047L183.472 33.9209L182.984 34.3321L182.491 34.7382L181.993 35.1391L181.49 35.5348L180.981 35.9251L180.468 36.3101L179.95 36.6896L179.427 37.0636L178.899 37.4321L178.367 37.7949L177.83 38.1521L177.29 38.5035L176.745 38.8491L176.196 39.1889L175.644 39.5229L175.088 39.8509L174.528 40.1729L173.964 40.4889L173.398 40.7989L172.828 41.1028L172.255 41.4006L171.679 41.6922L171.101 41.9777L170.52 42.2569L169.936 42.5299L169.35 42.7967L168.761 43.0572L168.171 43.3113L167.578 43.5592L166.984 43.8007L166.388 44.0359L165.79 44.2648L165.191 44.4873L164.59 44.7034L163.988 44.9132L163.386 45.1166L162.782 45.3137L162.178 45.5044L161.573 45.6887L160.967 45.8667L160.361 46.0384L159.755 46.2037L159.149 46.3627L158.543 46.5155L157.936 46.662L157.331 46.8022L156.725 46.9363L156.121 47.0641L155.517 47.1857L154.913 47.3013L154.311 47.4107L153.71 47.5141L153.11 47.6114L152.511 47.7027L151.914 47.7881L151.318 47.8676L150.724 47.9412L150.132 48.009L149.542 48.0711L148.955 48.1274L148.369 48.1781L147.785 48.2232L147.205 48.2627L146.626 48.2968L146.051 48.3254L145.478 48.3487L144.908 48.3667L144.341 48.3795L143.778 48.3871L143.217 48.3897L142.66 48.3872L142.107 48.3798L141.557 48.3675L141.011 48.3505L140.468 48.3287L139.93 48.3024L139.396 48.2715L138.865 48.2362L138.339 48.1964L137.818 48.1525L137.3 48.1043L136.788 48.0521L136.28 47.9958L135.776 47.9356L135.277 47.8717L134.784 47.804L134.295 47.7327L133.811 47.6579L133.333 47.5797L132.859 47.4981L132.391 47.4134L131.929 47.3255L131.471 47.2347L131.02 47.141L130.574 47.0445L130.133 46.9453L129.699 46.8436L129.27 46.7394L128.847 46.6328L128.43 46.5241L128.019 46.4132L127.614 46.3003L127.215 46.1856L126.822 46.0691L126.436 45.9509L126.055 45.8312L125.681 45.7101L125.314 45.5877L124.953 45.4642L124.598 45.3396L124.25 45.214L123.908 45.0877L123.573 44.9606L123.244 44.833L122.922 44.7049L122.607 44.5765L122.299 44.448L121.997 44.3193L121.701 44.1907L121.413 44.0622L121.131 43.9341L120.857 43.8063L120.588 43.6791L120.327 43.5526L120.073 43.4268L119.825 43.302L119.584 43.1782L119.35 43.0555L119.123 42.9341L118.903 42.8141L118.689 42.6957L118.483 42.5788L118.283 42.4638L118.09 42.3506L117.903 42.2394L117.724 42.1304L117.551 42.0236L117.385 41.9191L117.226 41.8172L117.073 41.7178L116.927 41.6212L116.787 41.5273L116.655 41.4364L116.529 41.3486L116.409 41.264L116.296 41.1826L116.189 41.1046L116.089 41.0302L115.995 40.9593L115.907 40.8922L115.826 40.8289L115.751 40.7695L115.682 40.7142L115.62 40.663L115.563 40.6161L115.513 40.5736L115.468 40.5354L115.429 40.5019L115.397 40.4729L115.37 40.4487L115.348 40.4294L115.333 40.415L115.323 40.4056L115.318 40.4013L115.319 40.4022L115.325 40.4084L115.337 40.4199L115.354 40.437L115.376 40.4595L115.403 40.4877L115.435 40.5215L115.472 40.5612L115.513 40.6067L115.56 40.6581L115.611 40.7155L115.667 40.7789L115.727 40.8485L115.791 40.9243L115.86 41.0063L115.933 41.0946L116.01 41.1894L116.091 41.2905L116.176 41.3982L116.265 41.5124L116.357 41.6332L116.453 41.7606L116.553 41.8947L116.656 42.0356L116.762 42.1833L116.871 42.3377L116.984 42.4991L117.099 42.6673L117.217 42.8425L117.338 43.0246L117.462 43.2137L117.588 43.4098L117.717 43.613L117.848 43.8233L117.981 44.0406L118.116 44.2651L118.253 44.4967L118.392 44.7354L118.533 44.9813L118.676 45.2343L118.82 45.4945L118.965 45.7619L119.112 46.0364L119.259 46.3181L119.408 46.607L119.558 46.9031L119.709 47.2063L119.86 47.5167L120.012 47.8342L120.164 48.1588L120.317 48.4906L120.47 48.8294L120.623 49.1753L120.776 49.5283L120.929 49.8883L121.082 50.2552L121.235 50.6292L121.387 51.01L121.538 51.3978L121.689 51.7924L121.839 52.1938L121.988 52.602L122.136 53.0169L122.282 53.4386L122.428 53.8668L122.572 54.3016L122.715 54.743L122.856 55.1908L122.995 55.6451L123.133 56.1057L123.268 56.5726L123.402 57.0458L123.533 57.5251L123.663 58.0105L123.789 58.5019L123.914 58.9993L124.036 59.5026L124.155 60.0117L124.271 60.5265L124.385 61.0469L124.495 61.5729L124.603 62.1044L124.707 62.6412L124.808 63.1834L124.905 63.7307L125 64.2832L125.09 64.8407L125.177 65.4031L125.261 65.9704L125.34 66.5424L125.415 67.119L125.487 67.7001L125.554 68.2857L125.618 68.8755L125.677 69.4696L125.732 70.0677L125.782 70.6699L125.828 71.2759L125.869 71.8857L125.906 72.499L125.937 73.116L125.965 73.7363L125.987 74.3599L126.004 74.9867L126.017 75.6165L126.024 76.2492L126.026 76.8847L126.023 77.5228L126.015 78.1635L126.002 78.8066L125.983 79.452L125.959 80.0995L125.929 80.7491L125.894 81.4005L125.854 82.0536L125.807 82.7084L125.755 83.3646L125.698 84.0222L125.635 84.681L125.566 85.3408L125.491 86.0016L125.41 86.6631L125.324 87.3253L125.232 87.988L125.133 88.651L125.029 89.3143L124.919 89.9776L124.803 90.6409L124.681 91.3039L124.553 91.9666L124.419 92.6288L124.279 93.2904L124.133 93.9512L123.98 94.611L123.822 95.2698L123.658 95.9273L123.487 96.5835L123.311 97.2382L123.128 97.8912L122.939 98.5424L122.745 99.1916L122.544 99.8388L122.337 100.484L122.124 101.126L121.905 101.766L121.68 102.404L121.449 103.038L121.213 103.67L120.97 104.298L120.721 104.924L120.467 105.546L120.206 106.164L119.94 106.779L119.668 107.389L119.39 107.996L119.107 108.599L118.818 109.198L118.523 109.792L118.222 110.382L117.916 110.967L117.605 111.548L117.288 112.123L116.966 112.694L116.638 113.259L116.305 113.819L115.967 114.374L115.624 114.923L115.275 115.466L114.922 116.004L114.563 116.536L114.2 117.061L113.832 117.581L113.459 118.094L113.081 118.601L112.699 119.101L112.312 119.595L111.92 120.082L111.525 120.562L111.124 121.035L110.72 121.501L110.312 121.96L109.899 122.411L109.482 122.855L109.062 123.292L108.638 123.721L108.21 124.142L107.778 124.555L107.343 124.961L106.904 125.359L106.462 125.748L106.017 126.129L105.569 126.502L105.117 126.867L104.663 127.223L104.206 127.571L103.746 127.91L103.283 128.24L102.818 128.561L102.351 128.874L101.881 129.178L101.409 129.473L100.935 129.759L100.459 130.035L99.981 130.303L99.5013 130.561L99.02 130.81L98.5371 131.05L98.0529 131.28L97.5673 131.501L97.0806 131.712L96.5928 131.913L96.1041 132.106L95.6145 132.288L95.1243 132.461L94.6334 132.624L94.1421 132.777L93.6504 132.92L93.1585 133.054L92.6666 133.178L92.1746 133.291L91.6827 133.395L91.1912 133.489L90.7 133.574L90.2093 133.648L89.7192 133.712L89.2299 133.766L88.7415 133.81L88.2541 133.844L87.7678 133.868L87.2827 133.882L86.799 133.886L86.3168 133.881L85.8361 133.865L85.3573 133.839L84.8802 133.803L84.4052 133.757L83.9322 133.701L83.4614 133.635L82.993 133.559L82.5271 133.474L82.0637 133.378L81.603 133.273L81.1451 133.158L80.6902 133.033L80.2383 132.898L79.7895 132.753L79.3441 132.599L78.902 132.435L78.4634 132.262L78.0285 132.079L77.5973 131.887L77.1699 131.685L76.7465 131.473L76.3272 131.253L75.912 131.023L75.5012 130.784L75.0947 130.535L74.6927 130.278L74.2953 130.011L73.9026 129.736L73.5148 129.452L73.1318 129.158L72.7538 128.856L72.381 128.546L72.0133 128.226L71.651 127.899L71.294 127.562L70.9425 127.218L70.5967 126.865L70.2564 126.504L69.922 126.135L69.5934 125.758L69.2707 125.373L68.954 124.98L68.6434 124.579L68.339 124.171L68.0409 123.755L67.7491 123.332L67.4637 122.902L67.1848 122.464L66.9125 122.019L66.6468 121.567L66.3877 121.109L66.1355 120.643L65.8901 120.171L65.6515 119.693L65.42 119.207L65.1954 118.716L64.978 118.218L64.7676 117.715L64.5644 117.205L64.3685 116.69L64.1799 116.169L63.9986 115.642L63.8246 115.109L63.6581 114.572L63.4991 114.029L63.3475 113.481L63.2035 112.928L63.0671 112.371L62.9383 111.808L62.8171 111.241L62.7037 110.67L62.5979 110.094L62.4998 109.515L62.4095 108.931L62.3269 108.343L62.2522 107.751L62.1852 107.156L62.126 106.558L62.0747 105.956L62.0312 105.35L61.9956 104.742L61.9678 104.131L61.9479 103.517L61.9358 102.9L61.9316 102.281L61.9353 101.659L61.9467 101.035L61.9661 100.41L61.9932 99.7816L62.0282 99.1519L62.0709 98.5204L62.1215 97.8874L62.1798 97.253L62.2459 96.6174L62.3196 95.9806L62.4011 95.3427L62.4903 94.7041L62.5871 94.0647L62.6915 93.4247L62.8034 92.7843L62.9229 92.1436L63.0499 91.5027L63.1844 90.8618L63.3263 90.2209L63.4756 89.5803L63.6321 88.9401L63.796 88.3003L63.9671 87.6612L64.1453 87.0228L64.3307 86.3854L64.5231 85.7489L64.7226 85.1136L64.9289 84.4796L65.1422 83.847L65.3623 83.2159L65.5891 82.5865L65.8226 81.9588L66.0627 81.3331L66.3093 80.7093L66.5625 80.0878L66.8219 79.4684L67.0877 78.8515L67.3598 78.2371L67.638 77.6252L67.9222 77.0161L68.2124 76.4099L68.5085 75.8066L68.8104 75.2063L69.1181 74.6093L69.4313 74.0155L69.7501 73.4251L70.0743 72.8381L70.4039 72.2548L70.7387 71.6752L71.0787 71.0993L71.4237 70.5273L71.7736 69.9594L72.1284 69.3954L72.4879 68.8357L72.852 68.2802L73.2207 67.7291L73.5938 67.1824L73.9712 66.6402L74.3527 66.1026L74.7384 65.5697L75.128 65.0416L75.5215 64.5183L75.9187 63.9999L76.3195 63.4865L76.7238 62.9782L77.1316 62.475L77.5426 61.977L77.9567 61.4843L78.3738 60.9969L78.7939 60.5148L79.2168 60.0382L79.6423 59.5672L80.0703 59.1016L80.5007 58.6417L80.9335 58.1875L81.3684 57.7389L81.8053 57.2961L82.2441 56.8591L82.6847 56.428L83.127 56.0027L83.5707 55.5834L84.0159 55.1699L84.4623 54.7625L84.9099 54.3611L85.3585 53.9658L85.8079 53.5765L86.2581 53.1933L86.7089 52.8162L87.1602 52.4452L87.6119 52.0804L88.0637 51.7218L88.5157 51.3693L88.9676 51.0231L89.4194 50.683L89.8709 50.3491L90.3219 50.0214L90.7724 49.7L91.2222 49.3847L91.6712 49.0757L92.1192 48.7728L92.5662 48.4761L93.012 48.1856L93.4564 47.9013L93.8994 47.6231L94.3409 47.351L94.7806 47.0851L95.2184 46.8253L95.6544 46.5715L96.0882 46.3237L96.5198 46.082L96.9492 45.8463L97.376 45.6165L97.8003 45.3926L98.2219 45.1747L98.6407 44.9625L99.0566 44.7562L99.4694 44.5556L99.879 44.3607L100.285 44.1715L100.688 43.988L101.088 43.81L101.484 43.6375L101.876 43.4704L102.264 43.3088L102.649 43.1525L103.029 43.0015L103.405 42.8558L103.777 42.7151L104.144 42.5796L104.507 42.4491L104.866 42.3236L105.22 42.2029L105.569 42.087L105.913 41.9759L106.252 41.8694L106.586 41.7676L106.915 41.6702L107.239 41.5772L107.557 41.4886L107.87 41.4042L108.178 41.324L108.48 41.2478L108.776 41.1757L109.066 41.1074L109.351 41.043L109.63 40.9823L109.903 40.9251L110.17 40.8716L110.43 40.8214L110.685 40.7746L110.933 40.7309L111.175 40.6905L111.411 40.653L111.64 40.6185L111.863 40.5868L112.079 40.5578L112.288 40.5314L112.491 40.5075L112.687 40.486L112.876 40.4668L113.059 40.4498L113.235 40.4349L113.404 40.4219L113.565 40.4107L113.72 40.4013L113.868 40.3935L114.009 40.3872L114.143 40.3824L114.269 40.3788L114.389 40.3763L114.501 40.3749L114.607 40.3745L114.705 40.3748L114.795 40.3759L114.879 40.3776L114.955 40.3797L115.024 40.3822L115.086 40.3849L115.14 40.3877L115.188 40.3905L115.228 40.3933L115.26 40.3957L115.285 40.3979L115.304 40.3995L115.314 40.4006L115.318 40.401L115.314 40.4005L115.303 40.3992L115.285 40.3967L115.259 40.3931L115.227 40.3883L115.187 40.382L115.14 40.3742L115.086 40.3648L115.025 40.3536L114.956 40.3406L114.881 40.3257L114.799 40.3086L114.71 40.2894L114.613 40.2678L114.51 40.2439L114.4 40.2174L114.284 40.1884L114.16 40.1565L114.03 40.1219L113.893 40.0843L113.75 40.0437L113.6 39.9999L113.444 39.9528L113.281 39.9024L113.112 39.8486L112.936 39.7912L112.755 39.7301L112.567 39.6654L112.373 39.5967L112.173 39.5241L111.967 39.4476L111.755 39.3668L111.537 39.2819L111.314 39.1927L111.085 39.0991L110.85 39.0011L110.61 38.8984L110.365 38.7912L110.114 38.6792L109.858 38.5625L109.597 38.4408L109.331 38.3143L109.06 38.1827L108.784 38.046L108.503 37.9041L108.218 37.757L107.928 37.6046L107.633 37.4469L107.334 37.2837L107.031 37.1151L106.724 36.9408L106.413 36.761L106.098 36.5756L105.779 36.3843L105.456 36.1874L105.13 35.9846L104.8 35.776L104.467 35.5614L104.13 35.3409L103.79 35.1144L103.448 34.8818L103.102 34.6432L102.753 34.3985L102.402 34.1476L102.048 33.8906L101.692 33.6274L101.334 33.3579L100.973 33.0822L100.61 32.8002L100.245 32.5119L99.8781 32.2173L99.5097 31.9164L99.1396 31.6091L98.768 31.2955L98.395 30.9755L98.0208 30.6492L97.6456 30.3165L97.2693 29.9774L96.8922 29.6319L96.5143 29.2801L96.1358 28.9219L95.7569 28.5573L95.3776 28.1864L94.9981 27.8091L94.6185 27.4256L94.2389 27.0357L93.8595 26.6395L93.4804 26.2371L93.1017 25.8284L92.7235 25.4135L92.346 24.9924L91.9692 24.5651L91.5934 24.1317L91.2187 23.6922L90.8451 23.2467L90.4728 22.7951L90.102 22.3375L89.7327 21.874L89.365 21.4047L88.9991 20.9295L88.6352 20.4484L88.2733 19.9617L87.9136 19.4693L87.5561 18.9712L87.2011 18.4676L86.8486 17.9584L86.4987 17.4438L86.1515 16.9239L85.8073 16.3986L85.466 15.868L85.1279 15.3323L84.793 14.7915L84.4614 14.2457L84.1333 13.6949L83.8087 13.1393L83.4878 12.5788L83.1707 12.0137L82.8575 11.4439L82.5482 10.8696L82.2431 10.2909L81.9422 9.70782L81.6456 9.12047L81.3534 8.52895L81.0657 7.93337L80.7827 7.33381L80.5043 6.73038L80.2308 6.12317L79.9622 5.5123L79.6985 4.89786L79.44 4.27997L79.1866 3.65872L78.9385 3.03423L78.6958 2.4066L78.4585 1.77596L78.2267 1.14241L78.0006 0.506071L77.7801 -0.132943L77.5654 -0.774514L77.3566 -1.41852L77.1537 -2.06485L76.9567 -2.71338L76.7659 -3.36398L76.5812 -4.01653L76.4027 -4.6709L76.2305 -5.32698L76.0646 -5.98462L75.9051 -6.64371L75.7521 -7.30411L75.6056 -7.9657L75.4656 -8.62834L75.3324 -9.2919L75.2058 -9.95626L75.0859 -10.6213L74.9728 -11.2868L74.8666 -11.9527L74.7673 -12.6189L74.6748 -13.2851L74.5894 -13.9514L74.5109 -14.6175L74.4395 -15.2832L74.3751 -15.9486L74.3179 -16.6134L74.2678 -17.2774L74.2249 -17.9406L74.1891 -18.6028L74.1606 -19.2639L74.1393 -19.9236L74.1252 -20.582L74.1185 -21.2388L74.119 -21.8939L74.1268 -22.5471L74.1419 -23.1984L74.1644 -23.8475L74.1942 -24.4944L74.2313 -25.1389L74.2758 -25.7808L74.3275 -26.42L74.3867 -27.0564L74.4531 -27.6898L74.5269 -28.32L74.608 -28.9471L74.6964 -29.5707L74.792 -30.1908L74.895 -30.8073L75.0052 -31.4199L75.1226 -32.0286L75.2473 -32.6332L75.3792 -33.2336L75.5182 -33.8296L75.6643 -34.4211L75.8176 -35.008L75.9779 -35.5901L76.1453 -36.1674L76.3197 -36.7396L76.5011 -37.3067L76.6893 -37.8684L76.8845 -38.4248L77.0865 -38.9756L77.2953 -39.5207L77.5109 -40.0601L77.7331 -40.5935L77.962 -41.1208L78.1974 -41.642L78.4394 -42.1569L78.6879 -42.6654L78.9428 -43.1674L79.204 -43.6627L79.4715 -44.1512L79.7453 -44.6329L80.0252 -45.1076L80.3111 -45.5751L80.6031 -46.0355L80.9011 -46.4885L81.2049 -46.9341L81.5144 -47.3722L81.8297 -47.8026L82.1507 -48.2253L82.4772 -48.6401L82.8091 -49.047L83.1464 -49.4458L83.4891 -49.8365L83.8369 -50.219L84.1899 -50.5932L84.5479 -50.9589L84.9108 -51.3161L85.2786 -51.6648L85.6512 -52.0048L86.0284 -52.336L86.4101 -52.6584L86.7963 -52.9719L87.1869 -53.2764L87.5818 -53.5719L87.9808 -53.8582L88.3838 -54.1353L88.7909 -54.4031L89.2017 -54.6616L89.6163 -54.9107L90.0345 -55.1504L90.4563 -55.3805L90.8815 -55.6011L91.3099 -55.812L91.7416 -56.0132L92.1763 -56.2047L92.6141 -56.3864L93.0546 -56.5583L93.4979 -56.7204L93.9439 -56.8725L94.3923 -57.0146L94.8432 -57.1468L95.2963 -57.269L95.7515 -57.3811L96.2088 -57.4831L96.6681 -57.5751L97.1291 -57.6569L97.5918 -57.7285L98.0561 -57.79L98.5218 -57.8413L98.9889 -57.8824L99.4571 -57.9132L99.9264 -57.9339L100.397 -57.9443L100.868 -57.9445L101.34 -57.9345L101.812 -57.9142L102.285 -57.8837L102.758 -57.8429L103.232 -57.792L103.705 -57.7308L104.179 -57.6594L104.652 -57.5779L105.126 -57.4861L105.598 -57.3843L106.071 -57.2723L106.542 -57.1502L107.013 -57.018L107.484 -56.8758L107.953 -56.7236L108.421 -56.5614L108.888 -56.3893L109.353 -56.2072L109.817 -56.0153L110.28 -55.8136L110.741 -55.6021L111.2 -55.3809L111.657 -55.1501L112.112 -54.9096L112.565 -54.6595L113.016 -54.4L113.464 -54.131L113.91 -53.8526L114.353 -53.5649L114.794 -53.268L115.232 -52.9618L115.667 -52.6466L116.099 -52.3223L116.527 -51.9891L116.953 -51.6469L117.375 -51.296L117.794 -50.9363L118.21 -50.568L118.621 -50.1911L119.03 -49.8058L119.434 -49.412L119.834 -49.01L120.231 -48.5998L120.623 -48.1815L121.011 -47.7552L121.395 -47.3209L121.774 -46.8789L122.149 -46.4291L122.52 -45.9718L122.886 -45.5069L123.247 -45.0347L123.604 -44.5552L123.955 -44.0685L124.302 -43.5748L124.644 -43.0741L124.98 -42.5666L125.312 -42.0523L125.638 -41.5315L125.959 -41.0042L126.275 -40.4706L126.585 -39.9307L126.89 -39.3847L127.189 -38.8327L127.483 -38.2749L127.771 -37.7113L128.053 -37.1421L128.33 -36.5675L128.601 -35.9875L128.866 -35.4023L129.125 -34.812L129.378 -34.2167L129.625 -33.6167L129.866 -33.012L130.101 -32.4027L130.33 -31.789L130.553 -31.1711L130.77 -30.549L130.98 -29.923L131.184 -29.2931L131.382 -28.6595L131.574 -28.0223L131.759 -27.3817L131.938 -26.7378L132.111 -26.0908L132.277 -25.4407L132.437 -24.7878L132.591 -24.1322L132.738 -23.4741L132.879 -22.8135L133.013 -22.1506L133.141 -21.4856L133.263 -20.8186L133.378 -20.1497L133.486 -19.4791L133.589 -18.807L133.685 -18.1335L133.774 -17.4587L133.857 -16.7828L133.934 -16.1059L134.005 -15.4281L134.069 -14.7497L134.127 -14.0707L134.178 -13.3913L134.223 -12.7117L134.263 -12.0319L134.295 -11.3521L134.322 -10.6726L134.343 -9.99327L134.357 -9.31442L134.365 -8.63614L134.368 -7.95859L134.364 -7.2819L134.354 -6.60621L134.339 -5.93165L134.318 -5.25835L134.29 -4.58647L134.257 -3.91612L134.219 -3.24744L134.175 -2.58056L134.125 -1.91562L134.069 -1.25274L134.008 -0.59206L133.942 0.0663069L133.87 0.722218L133.793 1.37556L133.711 2.0262L133.624 2.67402L133.532 3.3189L133.434 3.96071L133.332 4.59935L133.225 5.23467L133.113 5.86659L132.996 6.49497L132.875 7.11971L132.749 7.74069L132.619 8.3578L132.484 8.97094L132.345 9.57998L132.202 10.1848L132.055 10.7854L131.904 11.3816L131.749 11.9733L131.59 12.5604L131.427 13.1428L131.261 13.7204L131.091 14.2931L130.918 14.8609L130.741 15.4236L130.561 15.9811L130.378 16.5335L130.192 17.0805L130.003 17.6221L129.812 18.1582L129.617 18.6888L129.42 19.2137L129.221 19.733L129.019 20.2465L128.814 20.7541L128.608 21.2558L128.4 21.7515L128.189 22.2412L127.977 22.7248L127.763 23.2022L127.548 23.6734L127.331 24.1384L127.113 24.597L126.893 25.0492L126.672 25.4951L126.451 25.9344L126.228 26.3673L126.005 26.7936L125.781 27.2133L125.556 27.6264L125.331 28.0328L125.106 28.4325L124.88 28.8255L124.655 29.2118L124.429 29.5913L124.204 29.964L123.979 30.3299L123.754 30.6889L123.53 31.0411L123.307 31.3865L123.084 31.7249L122.863 32.0565L122.642 32.3812L122.422 32.699L122.204 33.01L121.987 33.314L121.772 33.6111L121.558 33.9014L121.346 34.1848L121.136 34.4613L120.927 34.731L120.721 34.9938L120.517 35.2498L120.316 35.499L120.116 35.7415L119.92 35.9771L119.726 36.2061L119.534 36.4283L119.346 36.6439L119.161 36.8528L118.978 37.0552L118.799 37.2509L118.624 37.4401L118.451 37.6229L118.282 37.7992L118.117 37.9691L117.956 38.1326L117.798 38.2899L117.645 38.4408L117.495 38.5856L117.35 38.7243L117.209 38.8569L117.072 38.9834L116.939 39.104L116.811 39.2187L116.688 39.3275L116.57 39.4306L116.456 39.528L116.347 39.6197L116.243 39.7059L116.145 39.7867L116.051 39.862L115.963 39.932L115.88 39.9967L115.802 40.0563L115.73 40.1108L115.663 40.1603L115.603 40.2049L115.547 40.2447L115.498 40.2797L115.454 40.3101L115.417 40.336L115.385 40.3573L115.359 40.3743L115.34 40.3871L115.326 40.3957L115.319 40.4002L115.318 40.4007L115.324 40.3974L115.336 40.3903L115.354 40.3795L115.379 40.3652L115.41 40.3475L115.448 40.3264L115.493 40.302L115.544 40.2745L115.602 40.244L115.666 40.2106L115.738 40.1744L115.816 40.1355L115.901 40.0941L115.993 40.0501L116.092 40.0039L116.198 39.9554L116.311 39.9048L116.431 39.8522L116.557 39.7977L116.691 39.7415L116.832 39.6836L116.98 39.6242L117.134 39.5634L117.296 39.5013L117.465 39.438L117.641 39.3737L117.824 39.3085L118.014 39.2424L118.211 39.1757L118.415 39.1084L118.626 39.0406L118.844 38.9726L119.069 38.9043L119.302 38.8359L119.541 38.7676L119.787 38.6994L120.04 38.6315L120.299 38.564L120.566 38.497L120.84 38.4307L121.12 38.3651L121.407 38.3003L121.701 38.2366L122.002 38.174L122.309 38.1125L122.623 38.0525L122.944 37.9939L123.271 37.9368L123.604 37.8815L123.944 37.8279L124.291 37.7763L124.643 37.7266L125.002 37.6792L125.368 37.6339L125.739 37.5911L126.116 37.5507L126.5 37.5128L126.889 37.4777L127.285 37.4453L127.686 37.4159L128.093 37.3894L128.506 37.366L128.924 37.3459L129.348 37.329L129.777 37.3156L130.212 37.3056L130.652 37.2993L131.097 37.2966L131.547 37.2978L132.002 37.3028L132.462 37.3117L132.927 37.3248L133.397 37.342L133.872 37.3634L134.351 37.3891L134.834 37.4193L135.322 37.4539L135.814 37.4931L136.31 37.5369L136.81 37.5855L137.315 37.6388L137.823 37.6971L138.335 37.7602L138.85 37.8284L139.369 37.9017L139.891 37.9801L140.417 38.0637L140.946 38.1526L141.478 38.2468L142.013 38.3464L142.55 38.4515L143.09 38.5621L143.633 38.6782L144.179 38.7999L144.726 38.9273L145.276 39.0604L145.828 39.1992L146.382 39.3438L146.938 39.4943L147.496 39.6506L148.055 39.8128L148.615 39.981L149.177 40.1551L149.74 40.3353L150.305 40.5214L150.87 40.7136L151.436 40.9119L152.002 41.1163L152.569 41.3268L153.137 41.5434L153.705 41.7662L154.273 41.9952L154.841 42.2303L155.409 42.4716L155.976 42.719L156.543 42.9727L157.11 43.2325L157.676 43.4985L158.241 43.7707L158.806 44.0491L159.369 44.3337L159.931 44.6244L160.492 44.9212L161.051 45.2242L161.609 45.5333L162.165 45.8484L162.719 46.1697L163.271 46.497L163.821 46.8303L164.369 47.1696L164.914 47.5148L165.457 47.866L165.997 48.2231L166.534 48.586L167.068 48.9547L167.6 49.3293L168.128 49.7095L168.653 50.0954L169.174 50.487L169.692 50.8842L170.206 51.2868L170.717 51.695L171.223 52.1086L171.725 52.5275L172.224 52.9518L172.717 53.3812L173.207 53.8159L173.692 54.2557L174.172 54.7005L174.647 55.1502L175.118 55.6049L175.583 56.0644L176.044 56.5286L176.499 56.9975L176.949 57.471L177.393 57.9489L177.832 58.4313L178.265 58.9181L178.692 59.409L179.113 59.9041L179.529 60.4033L179.938 60.9065L180.341 61.4135L180.738 61.9243L181.128 62.4388L181.512 62.9569L181.889 63.4785L182.26 64.0034L182.624 64.5316L182.981 65.063L183.331 65.5975L183.674 66.1349L184.009 66.6752L184.338 67.2182L184.659 67.7638L184.973 68.3119L185.28 68.8625L185.579 69.4153L185.87 69.9702L186.154 70.5273L186.43 71.0862L186.699 71.647L186.959 72.2094L187.212 72.7734L187.456 73.3389L187.693 73.9056L187.921 74.4736L188.141 75.0426L188.353 75.6126L188.557 76.1833L188.752 76.7548L188.939 77.3268L189.118 77.8992L189.288 78.472L189.45 79.0449L189.603 79.6178L189.748 80.1906L189.884 80.7632L190.011 81.3355L190.13 81.9072L190.24 82.4783L190.342 83.0487L190.435 83.6182L190.519 84.1866L190.594 84.7539L190.66 85.3199L190.718 85.8844L190.767 86.4474L190.807 87.0087L190.838 87.5682L190.86 88.1257L190.874 88.6811L190.878 89.2342L190.874 89.785L190.861 90.3333L190.84 90.8789L190.809 91.4218L190.77 91.9618L190.722 92.4988L190.665 93.0326L190.599 93.5631L190.525 94.0901L190.441 94.6137L190.35 95.1335L190.249 95.6495L190.14 96.1616L190.023 96.6696L189.896 97.1734L189.762 97.6729L189.618 98.168L189.467 98.6585L189.307 99.1443L189.138 99.6252L188.961 100.101L188.776 100.572L188.583 101.038L188.382 101.499L188.172 101.954L187.955 102.403L187.729 102.847L187.495 103.285L187.254 103.718L187.005 104.144L186.748 104.564L186.483 104.979L186.211 105.386L185.931 105.788L185.644 106.183L185.349 106.571L185.047 106.952L184.738 107.327L184.421 107.695L184.098 108.056L183.767 108.41L183.43 108.756L183.086 109.096L182.735 109.428L182.377 109.752L182.013 110.069L181.643 110.378L181.266 110.68L180.882 110.974L180.493 111.26L180.098 111.538L179.696 111.808L179.289 112.07L178.876 112.324L178.457 112.569L178.033 112.807L177.603 113.036L177.168 113.256L176.728 113.468L176.283 113.672L175.832 113.867L175.377 114.053L174.917 114.231L174.452 114.4L173.983 114.56L173.509 114.712L173.031 114.854L172.549 114.988L172.063 115.113L171.572 115.228L171.078 115.335L170.58 115.433L170.079 115.521L169.574 115.601L169.065 115.671L168.554 115.733L168.039 115.785L167.521 115.828L167.001 115.862L166.478 115.886L165.952 115.902L165.423 115.908L164.893 115.905L164.36 115.893L163.825 115.871L163.287 115.841L162.748 115.801L162.208 115.752L161.666 115.694L161.122 115.626L160.577 115.55L160.03 115.464L159.483 115.369L158.934 115.266L158.385 115.153L157.835 115.031L157.284 114.9L156.733 114.76L156.182 114.611L155.63 114.453L155.079 114.286L154.527 114.111L153.975 113.926L153.424 113.733L152.873 113.531L152.323 113.321L151.773 113.102L151.224 112.874L150.676 112.638L150.129 112.394L149.582 112.141L149.038 111.88L148.494 111.611L147.952 111.333L147.412 111.047L146.873 110.754L146.336 110.452L145.801 110.143L145.268 109.826L144.737 109.501L144.208 109.168L143.682 108.828L143.158 108.48L142.637 108.125L142.118 107.763L141.602 107.394L141.089 107.017L140.579 106.633L140.072 106.243L139.568 105.846L139.068 105.442L138.57 105.031L138.076 104.614L137.586 104.191L137.099 103.761L136.616 103.325L136.137 102.883L135.662 102.435L135.191 101.982L134.723 101.522L134.26 101.057L133.801 100.586L133.346 100.111L132.896 99.6294L132.45 99.1431L132.009 98.6518L131.572 98.1556L131.139 97.6547L130.712 97.1491L130.289 96.6391L129.871 96.1246L129.458 95.606L129.05 95.0832L128.647 94.5565L128.249 94.0259L127.855 93.4916L127.468 92.9538L127.085 92.4125L126.708 91.8679L126.335 91.3201L125.969 90.7693L125.607 90.2157L125.251 89.6592L124.901 89.1002L124.555 88.5387L124.216 87.9749L123.882 87.4088L123.553 86.8408L123.231 86.2708L122.913 85.6991L122.602 85.1257L122.296 84.5509L121.995 83.9747L121.701 83.3973L121.412 82.8189L121.129 82.2396L120.851 81.6595L120.58 81.0788L120.314 80.4976L120.054 79.9161L119.799 79.3344L119.55 78.7526L119.307 78.1709L119.07 77.5895L118.839 77.0085L118.613 76.4279L118.393 75.8481L118.178 75.269L117.969 74.6908L117.766 74.1138L117.569 73.538L117.377 72.9635L117.191 72.3905L117.01 71.8192L116.835 71.2496L116.665 70.6819L116.501 70.1163L116.342 69.5529L116.188 68.9917L116.04 68.433L115.898 67.8769L115.76 67.3235L115.628 66.7729L115.501 66.2253L115.379 65.6808L115.262 65.1394L115.15 64.6015L115.043 64.067L114.941 63.5361L114.844 63.0088L114.752 62.4855L114.664 61.966L114.582 61.4507L114.503 60.9395L114.43 60.4326L114.361 59.9301L114.296 59.4322L114.235 58.9389L114.179 58.4503L114.127 57.9666L114.079 57.4878L114.036 57.014L113.996 56.5455L113.96 56.0822L113.928 55.6242L113.899 55.1717L113.875 54.7248L113.854 54.2835L113.836 53.8479L113.822 53.4182L113.81 52.9943L113.803 52.5765L113.798 52.1647L113.796 51.7591L113.797 51.3597L113.801 50.9667L113.808 50.58L113.818 50.1998L113.83 49.8262L113.844 49.4591L113.861 49.0988L113.88 48.7451L113.901 48.3983L113.924 48.0584L113.949 47.7253L113.976 47.3992L114.005 47.0802L114.035 46.7683L114.067 46.4634L114.1 46.1658L114.134 45.8754L114.17 45.5923L114.207 45.3164L114.244 45.0479L114.283 44.7868L114.322 44.5331L114.362 44.2869L114.403 44.0481L114.443 43.8168L114.485 43.5931L114.526 43.3769L114.568 43.1683L114.609 42.9672L114.65 42.7738L114.692 42.588L114.732 42.4098L114.773 42.2392L114.812 42.0762L114.851 41.9209L114.89 41.7732L114.927 41.6332L114.963 41.5008L114.998 41.376L115.032 41.2588L115.065 41.1492L115.096 41.0472L115.125 40.9528L115.153 40.8659L115.179 40.7866L115.203 40.7148L115.225 40.6504L115.245 40.5936L115.263 40.5441L115.279 40.502L115.292 40.4673L115.302 40.4399L115.31 40.4198L115.315 40.407L115.318 40.4013L115.317 40.4028L115.313 40.4114L115.307 40.427L115.297 40.4496L115.283 40.4792L115.266 40.5157L115.246 40.559L115.222 40.6091L115.194 40.6658L115.163 40.7292L115.128 40.7992L115.088 40.8757L115.045 40.9587L114.997 41.048L114.946 41.1435L114.89 41.2453L114.829 41.3532L114.764 41.4672L114.694 41.5871L114.62 41.713L114.541 41.8446L114.458 41.9819L114.369 42.1248L114.275 42.2733L114.177 42.4272L114.073 42.5865L113.964 42.751L113.85 42.9207L113.731 43.0954L113.606 43.275L113.476 43.4595L113.341 43.6488L113.2 43.8427L113.053 44.0411L112.901 44.2439L112.743 44.4511L112.58 44.6625L112.41 44.8779L112.235 45.0974L112.054 45.3207L111.867 45.5478L111.674 45.7785L111.476 46.0128L111.271 46.2504L111.06 46.4913L110.843 46.7354L110.62 46.9826L110.391 47.2326L110.155 47.4855L109.914 47.741L109.666 47.9991L109.412 48.2597L109.151 48.5225L108.885 48.7875L108.612 49.0546L108.333 49.3235L108.048 49.5943L107.756 49.8668L107.458 50.1408L107.154 50.4162L106.843 50.6928L106.526 50.9707L106.203 51.2495L105.874 51.5293L105.538 51.8098L105.196 52.0909L104.847 52.3726L104.493 52.6546L104.132 52.9368L103.765 53.2192L103.392 53.5015L103.012 53.7837L102.627 54.0656L102.235 54.3471L101.838 54.6281L101.434 54.9083L101.024 55.1878L100.608 55.4664L100.187 55.7439L99.7592 56.0202L99.3258 56.2952L98.8865 56.5687L98.4415 56.8407L97.9908 57.111L97.5344 57.3795L97.0724 57.646L96.6048 57.9105L96.1318 58.1728L95.6533 58.4327L95.1694 58.6903L94.6802 58.9453L94.1857 59.1976L93.6861 59.4471L93.1814 59.6937L92.6716 59.9372L92.1568 60.1776L91.6371 60.4148L91.1127 60.6486L90.5834 60.8789L90.0496 61.1056L89.5111 61.3286L88.9681 61.5478L88.4208 61.763L87.8691 61.9743L87.3131 62.1814L86.753 62.3842L86.1889 62.5827L85.6208 62.7768L85.0489 62.9663L84.4732 63.1512L83.8938 63.3314L83.3108 63.5067L82.7244 63.6771L82.1346 63.8425L81.5416 64.0028L80.9454 64.1579L80.3462 64.3077L79.744 64.4522L79.139 64.5912L78.5313 64.7247L77.921 64.8526L77.3082 64.9747L76.693 65.0912L76.0756 65.2018L75.456 65.3065L74.8344 65.4052L74.2109 65.4979L73.5856 65.5845L72.9587 65.6649L72.3302 65.7391L71.7003 65.807L71.0691 65.8686L70.4368 65.9237L69.8034 65.9724L69.1691 66.0146L68.534 66.0502L67.8982 66.0792L67.262 66.1016L66.6253 66.1172L65.9883 66.1261L65.3512 66.1283L64.7141 66.1236L64.0772 66.1121L63.4405 66.0938L62.8041 66.0685L62.1683 66.0363L61.5332 65.9971L60.8988 65.951L60.2654 65.8978L59.633 65.8377L59.0018 65.7705L58.3719 65.6962L57.7435 65.6149L57.1167 65.5266L56.4916 65.4311L55.8684 65.3286L55.2471 65.219L54.628 65.1023L54.0112 64.9785L53.3968 64.8477L52.7849 64.7098L52.1756 64.5648L51.5692 64.4128L50.9657 64.2537L50.3653 64.0877L49.7681 63.9146L49.1742 63.7345L48.5838 63.5475L47.9969 63.3536L47.4138 63.1528L46.8346 62.9451L46.2593 62.7305L45.6881 62.5092L45.1212 62.281L44.5587 62.0462L44.0006 61.8046L43.4472 61.5564L42.8985 61.3016L42.3547 61.0403L41.8159 60.7724L41.2822 60.4981L40.7537 60.2174L40.2306 59.9303L39.7129 59.637L39.2009 59.3374L38.6945 59.0316L38.194 58.7198L37.6994 58.4019L37.2109 58.078L36.7285 57.7483L36.2524 57.4127L35.7827 57.0713L35.3195 56.7243L34.8628 56.3717L34.4129 56.0135L33.9698 55.65L33.5336 55.281L33.1044 54.9068L32.6823 54.5274L32.2675 54.1429L31.8599 53.7533L31.4597 53.3589L31.067 52.9596L30.6819 52.5556L30.3045 52.147L29.9348 51.7338L29.573 51.3161L29.2191 50.8942L28.8732 50.468L28.5354 50.0376L28.2057 49.6033L27.8843 49.165L27.5713 48.7229L27.2666 48.277L26.9704 47.8276L26.6827 47.3747L26.4037 46.9184L26.1332 46.4589L25.8716 45.9962L25.6187 45.5305L25.3746 45.0618L25.1395 44.5904L24.9133 44.1163L24.6962 43.6396L24.4881 43.1605L24.2891 42.679L24.0993 42.1954L23.9187 41.7097L23.7473 41.222L23.5852 40.7325L23.4324 40.2413L23.289 39.7486L23.155 39.2544L23.0304 38.7588L22.9153 38.2621L22.8096 37.7643L22.7134 37.2655L22.6268 36.766L22.5496 36.2657L22.4821 35.7649L22.4241 35.2637L22.3757 34.7621L22.3369 34.2604L22.3078 33.7587L22.2882 33.257L22.2782 32.7556L22.2779 32.2545L22.2872 31.7539L22.3061 31.2539L22.3346 30.7547L22.3727 30.2563L22.4203 29.7589L22.4776 29.2627L22.5444 28.7677L22.6208 28.274L22.7067 27.7819L22.8021 27.2915L22.907 26.8028L23.0213 26.316L23.1451 25.8312L23.2782 25.3486L23.4208 24.8682L23.5726 24.3902L23.7338 23.9148L23.9042 23.442L24.0838 22.9719L24.2725 22.5048L24.4704 22.0406L24.6774 21.5796L24.8934 21.1218L25.1183 20.6674L25.3522 20.2165L25.595 19.7691L25.8465 19.3255L26.1068 18.8857L26.3757 18.4498L26.6533 18.018L26.9394 17.5904L27.234 17.167L27.5371 16.748L27.8484 16.3335L28.168 15.9236L28.4958 15.5183L28.8317 15.1179L29.1756 14.7224L29.5275 14.3319L29.8873 13.9464L30.2548 13.5662L30.63 13.1912L31.0128 12.8216L31.4031 12.4575L31.8009 12.099L32.206 11.7461L32.6183 11.399L33.0377 11.0576L33.4642 10.7222L33.8976 10.3928L34.3378 10.0695L34.7848 9.75227L35.2384 9.44129L35.6985 9.13662L36.1651 8.83831L36.6379 8.54645L37.117 8.2611L37.6021 7.98233L38.0932 7.7102L38.5901 7.44477L39.0928 7.18611L39.6012 6.93428L40.115 6.68933L40.6342 6.45131L41.1588 6.22028L41.6884 5.99628L42.2231 5.77938L42.7627 5.5696L43.3071 5.367L43.8562 5.17162L44.4098 4.9835L44.9678 4.80267L45.5302 4.62916L46.0966 4.46302L46.6672 4.30427L47.2416 4.15295L47.8198 4.00907L48.4016 3.87265L48.987 3.74373L49.5758 3.62233L50.1678 3.50844L50.7629 3.4021L51.3611 3.30332L51.9621 3.2121L52.5658 3.12845L53.1722 3.05238L53.781 2.98388L54.3921 2.92297L55.0054 2.86964L55.6209 2.82388L56.2382 2.7857L56.8574 2.75507L57.4782 2.73199L58.1005 2.71645L58.7243 2.70843L59.3493 2.70791L59.9755 2.71487L60.6027 2.7293L61.2307 2.75116L61.8595 2.78043L62.4889 2.81708L63.1188 2.86107L63.749 2.91238L64.3794 2.97097L65.01 3.03679L65.6405 3.10982L66.2708 3.19L66.9008 3.27729L67.5304 3.37164L68.1594 3.47301L68.7877 3.58135L69.4153 3.69659L70.0419 3.81869L70.6675 3.94758L71.2918 4.0832L71.9149 4.2255L72.5366 4.37442L73.1567 4.52987L73.7751 4.6918L74.3918 4.86013L75.0066 5.0348L75.6193 5.21572L76.2299 5.40283L76.8383 5.59604L77.4443 5.79528L78.0479 6.00046L78.6488 6.2115L79.2471 6.42831L79.8426 6.65081L80.4352 6.87891L81.0248 7.11251L81.6112 7.35153L82.1944 7.59587L82.7744 7.84543L83.3509 8.10012L83.9239 8.35984L84.4932 8.62449L85.0589 8.89396L85.6208 9.16815L86.1787 9.44696L86.7327 9.73028L87.2827 10.018L87.8284 10.31L88.37 10.6062L88.9072 10.9065L89.4399 11.2107L89.9682 11.5188L90.492 11.8306L91.0111 12.146L91.5255 12.4649L92.035 12.7872L92.5398 13.1127L93.0396 13.4413L93.5344 13.773L94.0241 14.1076L94.5087 14.4449L94.9881 14.7848L95.4623 15.1273L95.9312 15.4721L96.3947 15.8192L96.8528 16.1685L97.3055 16.5197L97.7526 16.8728L98.1942 17.2276L98.6302 17.5841L99.0605 17.942L99.4852 18.3013L99.9041 18.6618L100.317 19.0234L100.725 19.3859L101.126 19.7493L101.522 20.1133L101.912 20.4779L102.295 20.8429L102.673 21.2081L103.045 21.5736L103.411 21.939L103.771 22.3043L104.125 22.6694L104.473 23.0341L104.815 23.3982L105.151 23.7617L105.481 24.1244L105.805 24.4862L106.122 24.8469L106.434 25.2064L106.74 25.5646L107.039 25.9214L107.333 26.2765L107.62 26.6299L107.901 26.9815L108.177 27.3311L108.446 27.6786L108.71 28.0238L108.967 28.3667L109.218 28.707L109.464 29.0448L109.704 29.3798L109.937 29.7119L110.165 30.041L110.387 30.367L110.604 30.6897L110.814 31.009L111.019 31.3249L111.218 31.6371L111.412 31.9456L111.6 32.2503L111.782 32.551L111.959 32.8476L112.131 33.14L112.297 33.4281L112.458 33.7118L112.613 33.9909L112.764 34.2654L112.909 34.5351L113.049 34.8L113.183 35.06L113.313 35.3148L113.438 35.5645L113.558 35.809L113.674 36.048L113.784 36.2816L113.89 36.5097L113.992 36.7321L114.088 36.9487L114.181 37.1595L114.269 37.3644L114.353 37.5633L114.432 37.7561L114.508 37.9427L114.579 38.123L114.646 38.297L114.71 38.4646L114.77 38.6257L114.826 38.7802L114.878 38.9281L114.927 39.0693L114.973 39.2038L115.015 39.3314L115.054 39.452L115.09 39.5658L115.123 39.6724L115.153 39.7721L115.18 39.8645L115.204 39.9498L115.225 40.0279L115.244 40.0987L115.261 40.1621L115.275 40.2182L115.287 40.2668L115.297 40.308L115.305 40.3417L115.311 40.3679L115.315 40.3865L115.317 40.3976L115.318 40.401L115.317 40.3967L115.315 40.3848L115.311 40.3653L115.307 40.338L115.301 40.303L115.294 40.2602L115.286 40.2097L115.278 40.1515L115.269 40.0855L115.259 40.0117L115.249 39.9302L115.239 39.8408L115.229 39.7438L115.218 39.6389L115.208 39.5264L115.197 39.4061L115.187 39.278L115.177 39.1422L115.168 38.9988L115.159 38.8477L115.151 38.6889L115.143 38.5225L115.137 38.3485L115.131 38.1669L115.127 37.9777L115.124 37.7811L115.122 37.577L115.121 37.3655L115.122 37.1465L115.125 36.9203L115.13 36.6867L115.136 36.4458L115.144 36.1978L115.155 35.9426L115.167 35.6803L115.182 35.411L115.199 35.1346L115.218 34.8514L115.24 34.5613L115.265 34.2644L115.293 33.9608L115.323 33.6505L115.356 33.3336L115.393 33.0102L115.432 32.6804L115.475 32.3442L115.521 32.0018L115.57 31.6531L115.623 31.2983L115.679 30.9375L115.739 30.5708L115.803 30.1982L115.87 29.8199L115.942 29.4358L116.017 29.0462L116.097 28.6512L116.18 28.2507L116.268 27.845L116.36 27.4341L116.457 27.0181L116.557 26.5972L116.663 26.1714L116.773 25.7408L116.887 25.3056L117.007 24.8659L117.131 24.4217L117.259 23.9733L117.393 23.5206L117.532 23.0639L117.675 22.6032L117.824 22.1387L117.977 21.6705L118.136 21.1987L118.3 20.7234L118.47 20.2447L118.644 19.7629L118.824 19.2779L119.009 18.79L119.2 18.2993L119.396 17.8058L119.597 17.3098L119.804 16.8113L120.017 16.3105L120.235 15.8075L120.459 15.3025L120.688 14.7956L120.923 14.2869L121.164 13.7765L121.41 13.2646L121.662 12.7514L121.92 12.237L122.183 11.7214L122.452 11.2049L122.727 10.6876L123.008 10.1696L123.294 9.65107L123.587 9.13215L123.885 8.61297L124.188 8.09368L124.498 7.57441L124.813 7.05531L125.134 6.53652L125.46 6.01817L125.793 5.50041L126.131 4.98339L126.474 4.46723L126.824 3.95209L127.178 3.43809L127.539 2.92539L127.905 2.41412L128.277 1.90443L128.654 1.39644L129.037 0.890304L129.425 0.386152L129.819 -0.115867L130.218 -0.615627L130.622 -1.11298L131.032 -1.6078L131.447 -2.09995L131.867 -2.58928L132.292 -3.07568L132.722 -3.55898L133.158 -4.0391L133.598 -4.51585L134.044 -4.98914L134.494 -5.45882L134.949 -5.92477L135.409 -6.38686L135.874 -6.84495L136.343 -7.29893L136.817 -7.74866L137.296 -8.19403L137.778 -8.63491L138.266 -9.07117L138.757 -9.5027L139.253 -9.92938L139.753 -10.3511L140.257 -10.7677L140.764 -11.1791L141.276 -11.5852L141.792 -11.9859L142.311 -12.381L142.834 -12.7705L143.36 -13.1542L143.89 -13.532L144.423 -13.9039L144.96 -14.2697L145.499 -14.6293L146.042 -14.9827L146.588 -15.3297L147.136 -15.6702L147.688 -16.0041L148.241 -16.3313L148.798 -16.6519L149.357 -16.9655L149.918 -17.2723L150.482 -17.572L151.047 -17.8646L151.615 -18.1501L152.185 -18.4283L152.756 -18.6991L153.329 -18.9625L153.904 -19.2185L154.48 -19.4669L155.057 -19.7076L155.636 -19.9406L156.216 -20.1659L156.796 -20.3834L157.378 -20.593L157.96 -20.7946L158.543 -20.9882L159.126 -21.1738L159.71 -21.3512L160.294 -21.5205L160.878 -21.6816L161.462 -21.8344L162.046 -21.9789L162.63 -22.115L163.213 -22.2428L163.796 -22.3622L164.378 -22.4731L164.96 -22.5756L165.54 -22.6695L166.12 -22.7549L166.698 -22.8317L167.275 -22.9L167.851 -22.9596L168.425 -23.0106L168.998 -23.0529L169.568 -23.0866L170.137 -23.1117L170.704 -23.128L171.268 -23.1357L171.831 -23.1347L172.39 -23.125L172.948 -23.1067L173.502 -23.0796L174.054 -23.0439L174.603 -22.9995L175.149 -22.9464L175.691 -22.8847L176.23 -22.8144L176.766 -22.7354L177.298 -22.6479L177.827 -22.5518L178.351 -22.4472L178.872 -22.334L179.389 -22.2124L179.901 -22.0822L180.409 -21.9437L180.913 -21.7968L181.412 -21.6415L181.906 -21.4779L182.396 -21.3061L182.881 -21.126L183.36 -20.9378L183.835 -20.7414L184.304 -20.537L184.768 -20.3245L185.227 -20.1041L185.68 -19.8758L186.127 -19.6396L186.568 -19.3956L187.003 -19.144L187.433 -18.8846L187.856 -18.6177L188.273 -18.3433L188.684 -18.0614L189.088 -17.7722L189.486 -17.4756L189.877 -17.1719L190.261 -16.861L190.638 -16.543L191.009 -16.2181L191.372 -15.8863L191.729 -15.5477L192.078 -15.2024L192.42 -14.8505L192.754 -14.4921L193.082 -14.1272L193.401 -13.756L193.713 -13.3785L194.017 -12.995L194.314 -12.6053L194.602 -12.2098L194.883 -11.8084L195.156 -11.4012L195.42 -10.9885L195.677 -10.5702L195.925 -10.1465L196.165 -9.71751L196.229 -9.59901Z" stroke="#587BE0"/>
</svg>
